<?xml version="1.0" encoding="utf-8"?>
<!-- Generator: Adobe Illustrator 19.0.0, SVG Export Plug-In . SVG Version: 6.00 Build 0)  -->
<svg version="1.1" xmlns="http://www.w3.org/2000/svg" xmlns:xlink="http://www.w3.org/1999/xlink" x="0px" y="0px"
	 viewBox="0 0 1400 980" style="enable-background:new 0 0 1400 980;" xml:space="preserve">
<style type="text/css">
	.st0{clip-path:url(#XMLID_75_);fill:#FFD117;}
	.st1{opacity:0.35;clip-path:url(#XMLID_75_);fill:#FFFFFF;}
	.st2{fill:#DC1D3E;}
	.st3{fill:#EB1948;}
	.st4{fill:#86152D;}
	.st5{fill:#FFFFFF;}
	.st6{opacity:0.4;fill:#FFFFFF;}
	.st7{clip-path:url(#XMLID_78_);fill:#86152D;}
	.st8{clip-path:url(#XMLID_78_);fill:#FFFFFF;}
	.st9{clip-path:url(#XMLID_78_);fill:#EE3A69;}
	.st10{fill:none;}
	.st11{clip-path:url(#XMLID_80_);fill:#86152D;}
	.st12{clip-path:url(#XMLID_80_);fill:#FFFFFF;}
	.st13{clip-path:url(#XMLID_80_);fill:#EE3A69;}
	.st14{clip-path:url(#XMLID_81_);fill:#86152D;}
	.st15{clip-path:url(#XMLID_81_);fill:#FFFFFF;}
	.st16{clip-path:url(#XMLID_81_);fill:#F0F0F0;}
	.st17{clip-path:url(#XMLID_81_);fill:#E1E1E1;}
</style>
<g id="Layer_3">
	<g id="XMLID_4_">
		<defs>
			<rect id="XMLID_147_" width="1400" height="980"/>
		</defs>
		<clipPath id="XMLID_75_">
			<use xlink:href="#XMLID_147_"  style="overflow:visible;"/>
		</clipPath>
		<rect id="XMLID_2_" class="st0" width="1400" height="980"/>
		<circle id="XMLID_3_" class="st1" cx="76.4" cy="113.1" r="100.7"/>
		<circle id="XMLID_5_" class="st1" cx="218.8" cy="314.5" r="100.7"/>
		<circle id="XMLID_62_" class="st1" cx="388.8" cy="507.4" r="100.7"/>
		<circle id="XMLID_66_" class="st1" cx="579.3" cy="693.9" r="100.7"/>
		<circle id="XMLID_98_" class="st1" cx="773.3" cy="895.3" r="100.7"/>
		<circle id="XMLID_117_" class="st1" cx="364.4" cy="24.2" r="100.7"/>
		<circle id="XMLID_114_" class="st1" cx="506.8" cy="225.6" r="100.7"/>
		<circle id="XMLID_111_" class="st1" cx="676.8" cy="418.5" r="100.7"/>
		<circle id="XMLID_108_" class="st1" cx="867.3" cy="604.9" r="100.7"/>
		<circle id="XMLID_105_" class="st1" cx="1061.3" cy="806.4" r="100.7"/>
		<circle id="XMLID_132_" class="st1" cx="649.5" cy="-47.9" r="100.7"/>
		<circle id="XMLID_129_" class="st1" cx="791.9" cy="153.6" r="100.7"/>
		<circle id="XMLID_126_" class="st1" cx="961.9" cy="346.5" r="100.7"/>
		<circle id="XMLID_123_" class="st1" cx="1152.3" cy="532.9" r="100.7"/>
		<circle id="XMLID_120_" class="st1" cx="1346.3" cy="734.4" r="100.7"/>
		<circle id="XMLID_144_" class="st1" cx="1073.9" cy="64.7" r="100.7"/>
		<circle id="XMLID_141_" class="st1" cx="1243.9" cy="257.5" r="100.7"/>
		<circle id="XMLID_138_" class="st1" cx="1434.4" cy="444" r="100.7"/>
		<circle id="XMLID_135_" class="st1" cx="1628.4" cy="645.5" r="100.7"/>
		<circle id="XMLID_159_" class="st1" cx="-75.9" cy="403.5" r="100.7"/>
		<circle id="XMLID_156_" class="st1" cx="94.1" cy="596.3" r="100.7"/>
		<circle id="XMLID_153_" class="st1" cx="284.5" cy="782.8" r="100.7"/>
		<circle id="XMLID_150_" class="st1" cx="478.5" cy="984.3" r="100.7"/>
		<circle id="XMLID_171_" class="st1" cx="-11.2" cy="886.7" r="100.7"/>
		<circle id="XMLID_168_" class="st1" cx="179.2" cy="1073.2" r="100.7"/>
		<circle id="XMLID_180_" class="st1" cx="1253.1" cy="1007.9" r="100.7"/>
		<circle id="XMLID_183_" class="st1" cx="1353.8" cy="0" r="100.7"/>
	</g>
</g>
<g id="Layer_2">
	<g id="XMLID_15_">
		<path id="XMLID_32_" class="st2" d="M672.9,622.2c-110.8-3.6-159.3-59.3-176.3-86.1c6.7,45.9,38.6,118.6,173.3,123.7
			c173.9,6.6,261.4-126.5,280.1-158.9C889.2,559.2,801.3,626.3,672.9,622.2z"/>
		<path id="XMLID_33_" class="st3" d="M948.1,490c-67-43.8-212.3-127.5-264.7-137.2c-54-10-84,30.5-84,30.5
			c-33.5-48.5-75.5-38-111.5,9s8,106.5,8,106.5s-2.5,15.7,0.7,37.3c17,26.8,65.5,82.5,176.3,86.1c128.4,4.2,216.3-62.9,277.1-121.3
			c0.2-0.3,0.4-0.6,0.5-0.9C952.5,496.6,951.4,492.2,948.1,490z"/>
		<path id="XMLID_40_" class="st4" d="M929.9,492.3c0,0-75,1.7-110.3-9s-61-18.3-79.3-19.3c-18.3-1-195-23.7-217.7,15.7
			c0,0,52.1,21.6,92.3,38.7c19.7,8.4,41.4,11.2,62.6,8.2c9.9-1.4,21.8-3.2,35.2-5.6c42.3-7.3,99.3-11.3,122.9-10
			C859.2,512.3,919.2,496.7,929.9,492.3z"/>
		<path id="XMLID_38_" class="st5" d="M551.4,463c0,0,4,9.6,15,11.3s16.3,3,18,0s0-16.4,0-16.4S555.7,458.7,551.4,463z"/>
		<path id="XMLID_42_" class="st5" d="M757.6,466.4c0,0-0.7,20.5-10.2,24.5s-30.5,6.5-51.8,6s-32.3,1.2-34.9-10.3
			c-2.7-11.5-1.2-28.9-1.2-28.9S751.6,460.7,757.6,466.4z"/>
		<path id="XMLID_43_" class="st5" d="M811.6,480.9c0,0-21,4.5-34.5,4.6s-15.1-1.7-16.6-4.7c-1.6-3.2-3.6-5.4-2.9-14.5
			C757.6,466.4,793.3,470.4,811.6,480.9z"/>
		<path id="XMLID_44_" class="st5" d="M661.1,487.7c0,0-0.6,6-7.2,6.9c-6.6,0.9-47.3-0.9-58.2-6.9c-10.8-6-11.2-11.2-10.9-14.7
			s-0.5-15-0.5-15s39.8-6.9,75.2-0.3L661.1,487.7z"/>
		<path id="XMLID_41_" class="st5" d="M610.3,516.4c0,0,14.2-6.9,32.2-6.4c12,0.3,18.2,1.1,21,1.6c1.2,0.2,2,1.2,2,2.4v13.7
			C665.6,527.6,629.6,533.5,610.3,516.4z"/>
		<path id="XMLID_45_" class="st5" d="M665.6,513.9c0,0,11.5-1,24.3,1c12.8,2,20.1,3.2,21.6,6.2c0,0-27.4,5.5-45.9,6.4V513.9z"/>
		<path id="XMLID_17_" class="st6" d="M541.5,499.1c5.1,0.2,10.1,1.7,14.6,4.3c13.3,7.6,53.1,28.4,98.2,32.7
			c54.1,5.1,49.1-8.3,110.7-12.2c1.2-0.1,1.6,1.5,0.6,2.1c-10.8,5.7-39.3,20.5-64.5,32.9c-23.3,11.5-137.6-11.6-161.3-39.5
			C525.1,501.8,533.3,498.9,541.5,499.1z"/>
		<path id="XMLID_51_" class="st6" d="M517.1,394.1c-2.9,0.8-5-2.8-2.8-4.9c9.1-8.5,23.4-20.2,33.6-20.2c12.4,0,32.6,15.4,43.2,26.7
			c3.8,4.1,10.2,4.3,14.3,0.5c11.8-11.1,35-30,55.7-29.8c15.9,0.2,41.9,9.3,62.1,17.6c4.1,1.7,2.3,7.7-2,6.9
			c-22.9-4.2-51.3-8.9-60.1-8.2c-9.8,0.8-33,20.6-48.8,35.1c-8.4,7.7-21.6,6.9-29-1.8c-10.3-12.2-24.8-26.5-36.7-26.4
			C535.7,389.6,524.9,391.9,517.1,394.1z"/>
	</g>
	<g id="XMLID_11_">
		<path id="XMLID_59_" class="st3" d="M222.8,904.9c68.1,2.3,140.1-57.3,168.7-159.7c6.2-33.5,10.6-87.9-15.9-124
			c-40.5-55.2-137.2-51.2-178.9-39c0,0-189.9-41.7-138.4,114.1c0,0,9.1,55.7,32.9,112.9C122.2,849.5,172.8,903.2,222.8,904.9z"/>
		<path id="XMLID_68_" class="st2" d="M222.8,904.9c-50-1.7-100.6-55.3-131.7-95.7c25.1,60.3,66.5,122.2,131,122.2
			c134.9,0,162.1-156.3,162.1-156.3s3.9-11.9,7.2-29.8C362.9,847.6,290.9,907.2,222.8,904.9z"/>
		<path id="XMLID_48_" class="st6" d="M126.3,587.6c14.9,0.1,43.9,0.8,61.4,5.3c5.6,1.4,11.5,1.2,17-0.5
			c13.9-4.3,41.3-11.2,68.2-9.1c2.5,0.2,2.8,3.7,0.4,4.3c-16.9,4.3-48.6,13.3-68,23.7c-6.9,3.7-15.3,3.4-21.9-0.8
			c-11.2-7.1-30.8-17.1-57.2-21.5C125.4,588.8,125.5,587.6,126.3,587.6z"/>
		<path id="XMLID_56_" class="st6" d="M167.5,836.2c0,0,49.3,53.2,119.2,4.6c69.9-48.6-16.9,53.3-63.8,49.4
			C175.8,886.3,167.5,836.2,167.5,836.2z"/>
		<g id="XMLID_8_">
			<defs>
				<path id="XMLID_60_" d="M120.2,742.5c0,0-35.3-67.2-3.5-95c31.8-27.8,75.3,2.3,128-11c52.7-13.3,120.4,13.3,125.6,88
					C375.6,799.3,181.6,939.4,120.2,742.5z"/>
			</defs>
			<clipPath id="XMLID_78_">
				<use xlink:href="#XMLID_60_"  style="overflow:visible;"/>
			</clipPath>
			<path id="XMLID_12_" class="st7" d="M120.2,742.5c0,0-35.3-67.2-3.5-95c31.8-27.8,75.3,2.3,128-11c52.7-13.3,120.4,13.3,125.6,88
				C375.6,799.3,181.6,939.4,120.2,742.5z"/>
			<path id="XMLID_26_" class="st8" d="M229.9,639.3c0,0-11.2,13.8-4.7,58.4c0.5,3.2,3.4,5.6,6.6,5.4c11.4-0.8,37.3-3.1,51.9-7.7
				c19.1-6.1-1.4-57.7-5.5-61.9S233.7,630.9,229.9,639.3z"/>
			<path id="XMLID_22_" class="st8" d="M210.6,640.1c0,0,12.1,18.2,13.9,51.2c0,0-4,13-11.9,14.8c-7.8,1.7-52.1,6.9-53,2.9
				c-0.9-4.1-4.5-57.2,7.6-72.9C179.3,620.4,210.6,640.1,210.6,640.1z"/>
			<path id="XMLID_35_" class="st8" d="M125.1,641.7c0,0-4.4,39.7,0,51.9c4.4,12.2,11.6,11.9,18.6,11.6c6.9-0.3,15.4-1.1,15.4-1.1
				v-33.8C159.1,670.2,139.3,620.2,125.1,641.7z"/>
			<path id="XMLID_36_" class="st8" d="M336.5,655.3c0,0,2.6,11.9,0,24.7s-46.2,9.1-46.2,9.1s-7.9-40.8,11.8-52.7
				C302.1,636.3,335.4,641.1,336.5,655.3z"/>
			<path id="XMLID_31_" class="st8" d="M124.1,689.6c0,0-12,14.6-20.7,13.5s-10.3-51.7,20.9-53.3L124.1,689.6z"/>
			<path id="XMLID_37_" class="st9" d="M135.9,780.8c0,0,13.9-69.6,109.4-77.7c95.5-8,118.7,38,117.8,52.9
				c-0.8,14.9-73.2,111-131.7,116.3S135.9,780.8,135.9,780.8z"/>
		</g>
	</g>
	<g id="XMLID_14_">
		<path id="XMLID_34_" class="st10" d="M1116.9,356.9c129.7-14.6,136.3-95.3,136.3-95.3c-10-126.4-136.3-118.4-136.3-118.4
			s-126.3-7.9-136.3,118.4C980.6,261.6,987.2,342.3,1116.9,356.9z"/>
		<path id="XMLID_73_" class="st3" d="M1116.9,401c65.8,0,110.7-31,137.6-58.3c26.5-62.6,26.1-136.2,26.1-136.2s3-88.8-94.7-121.2
			c0,0-25.7-9.3-37.7-4.3c-12,5-31.3,4.3-31.3,4.3s-19.3,0.7-31.3-4.3c-12-5-37.7,4.3-37.7,4.3c-97.7,32.4-94.7,121.2-94.7,121.2
			s-0.3,69.1,23.7,130.3C1001.5,365.4,1046.3,401,1116.9,401z M1116.9,143.2c0,0,126.3-7.9,136.3,118.4c0,0-6.7,80.7-136.3,95.3
			c-129.7-14.6-136.3-95.3-136.3-95.3C990.6,135.3,1116.9,143.2,1116.9,143.2z"/>
		<path id="XMLID_84_" class="st2" d="M1116.9,401c-70.6,0-115.4-35.7-140-64.2c5.6,14.2,12.5,28,21,40.4c44,64.1,119,57.8,119,57.8
			s75.4,5.5,119-57.8c7.3-10.7,13.5-22.3,18.6-34.4C1227.6,370.1,1182.7,401,1116.9,401z"/>
		<path id="XMLID_50_" class="st6" d="M1156.2,87.3c-14.8,2-18.9,6-39.3,6.3c-20.4-0.3-24.6-4.3-39.3-6.3s-47.3,14.5-47.3,14.5
			s27.5-10,47.5-2.5s39.1,6.5,39.1,6.5s19.1,1,39.1-6.5s47.5,2.5,47.5,2.5S1171,85.3,1156.2,87.3z"/>
		<path id="XMLID_57_" class="st6" d="M1031.6,354.7c0,0,47.2,19.1,85.3,18.6s48.2,17.8,7.2,21.4
			C1083.1,398.3,1031.1,358.2,1031.6,354.7z"/>
		<g id="XMLID_149_">
			<defs>
				<path id="XMLID_162_" d="M1122.2,143.5c0,0-127.7-17.9-141.7,118.5c0,0,3.2,80.1,136.3,95.3c0,0,124.5-9.2,136.3-95.3
					C1253.2,262,1248.4,137.6,1122.2,143.5z"/>
			</defs>
			<clipPath id="XMLID_80_">
				<use xlink:href="#XMLID_162_"  style="overflow:visible;"/>
			</clipPath>
			<path id="XMLID_163_" class="st11" d="M1122.2,140.9c0,0-127.7-17.9-141.7,118.5c0,0,3.2,80.1,136.3,95.3
				c0,0,124.5-9.2,136.3-95.3C1253.2,259.4,1248.4,135,1122.2,140.9z"/>
			<path id="XMLID_10_" class="st12" d="M1113.2,143.7c0,0,8.7,13.8,8.8,29.3s1.4,25-4.4,27.6c0,0-44.6,1.3-48,0.6
				s-7.1-2.1-7.1-15.1s-3.1-35.6,3.1-38.4S1098.6,139.7,1113.2,143.7z"/>
			<path id="XMLID_1_" class="st12" d="M1059.7,151.7c0,0,2.7,5.2,2.8,34.4c0,0-1.3,8.9-8.1,10.4s-24.1,3-29.1-4s-4.1-24.9-4.1-24.9
				S1044.2,147.7,1059.7,151.7z"/>
			<path id="XMLID_16_" class="st12" d="M997.8,191.9c0,0,2.8,4.4,11.3,3.8s13.1-4.2,13.4-6.6c0.3-2.4-1.8-16-3-21.4
				C1019.5,167.7,1008.1,176.3,997.8,191.9z"/>
			<path id="XMLID_21_" class="st12" d="M1131.3,143.7c0,0-8.7,13.8-8.8,29.3s-1.4,25,4.4,27.6c0,0,44.6,1.3,48,0.6
				s7.1-2.1,7.1-15.1s3.1-35.6-3.1-38.4S1145.9,139.7,1131.3,143.7z"/>
			<path id="XMLID_20_" class="st12" d="M1184.8,151.7c0,0-2.7,5.2-2.8,34.4c0,0,1.3,8.9,8.1,10.4s24.1,3,29.1-4s4.1-24.9,4.1-24.9
				S1200.2,147.7,1184.8,151.7z"/>
			<path id="XMLID_19_" class="st13" d="M1251.3,270.6c-36.9-64.9-134.4-20.7-134.5-20.6c-0.6-0.3-97.7-44-134.4,20.6
				c0,0,10.2,74.1,134.5,86.3v0C1241.2,344.8,1251.3,270.6,1251.3,270.6z"/>
		</g>
	</g>
	<g id="XMLID_7_">
		<path id="XMLID_67_" class="st3" d="M502.8,193.9c0,0-10.8-32.5-72.5-77.5s-97.6-62-136.5-17.5c-38.9-44.5-74.9-27.5-136.5,17.5
			s-72.5,77.5-72.5,77.5c21.8,6.6,44.8,5.7,67,1.5c0.9-0.3,84.7-31,97-39c12.3-8,35.5,7.3,75.7-4.7c12.6-3.8,67.7,23.3,103.5,42
			C452.5,199.2,478.4,201.3,502.8,193.9z"/>
		<path id="XMLID_69_" class="st2" d="M324.5,151.7c-40.1,12-63.3-3.3-75.7,4.7c-12.3,8-96.1,38.7-97,39
			c47-8.8,90.4-32.2,111.9-29.7c13.7,1.5,30.1,2.8,30.1,2.8s16.4-1.2,30.1-2.8c20.3-2.3,60.2,18.4,104.1,28.1
			C392.2,175.1,337,148,324.5,151.7z"/>
		<path id="XMLID_200_" class="st2" d="M293.3,298.7c-95.2,1.2-175.6-65.2-200.5-88.1c60.9,114.2,201,108.1,201,108.1
			s119.6,8,196.5-104.7C457.1,241.8,379.7,297.6,293.3,298.7z"/>
		<path id="XMLID_205_" class="st3" d="M490.3,214c4.3-6.3,8.5-13,12.5-20.1c0,0-22.3,11-73.1,0.3c0,0-38,4.2-55,7.7s-56.1-3-80.8-3
			s-63.8,6.5-80.8,3s-55-7.7-55-7.7c-50.8,10.8-73.1-0.3-73.1-0.3c2.5,5.9,5.1,11.4,8,16.7c24.9,22.9,105.3,89.3,200.5,88.1
			C379.7,297.6,457.1,241.8,490.3,214z"/>
		<path id="XMLID_49_" class="st6" d="M338.5,79.7c-13.9,1.1-31.4,14.7-40,23.2c-2.6,2.5-6.7,2.5-9.3,0c-8.7-8.5-26.2-22.1-40-23.2
			c-13.6-1-45.6,17.1-58.9,25.1c-0.9,0.5-0.3,1.9,0.7,1.6c13.8-4.1,45.4-13.2,55.6-13c11.6,0.2,24.6,14.1,34,26.7
			c6.6,8.9,20,8.9,26.6,0c9.4-12.6,22.4-26.6,34-26.7c9.9-0.2,40,8.4,54.4,12.6c1.2,0.3,1.9-1.3,0.8-1.9
			C382.5,95.9,351.7,78.7,338.5,79.7z"/>
		<path id="XMLID_46_" class="st6" d="M293.8,220.6c0-3.8-3.1-6.9-6.9-6.9c-11.1,0-33.9,0.5-55.4,3.4c-30,4-79.7-15-79.7-15
			s39.7,25.7,77.3,29.3c34,3.3,39.2-2.8,58.1-3.9C290.9,227.3,293.8,224.3,293.8,220.6L293.8,220.6z"/>
		<g id="XMLID_9_">
			<defs>
				<path id="XMLID_53_" d="M323.4,165.6c-8.1,1.1-30.1,2.8-30.1,2.8v0c-0.1,0-22-1.7-30.1-2.7c-8.1-1.1-0.3-4.1-105.8,28.5
					c0,0,56.1,9.4,70.5,8.8c14.5-0.7,55.5-4.3,65.3-4v0c9.8-0.3,50.9,3.4,65.3,4c14.5,0.7,70.5-8.8,70.5-8.8
					C323.7,161.6,331.4,164.6,323.4,165.6z"/>
			</defs>
			<clipPath id="XMLID_81_">
				<use xlink:href="#XMLID_53_"  style="overflow:visible;"/>
			</clipPath>
			<path id="XMLID_166_" class="st14" d="M323.9,165.6c-8.1,1.1-30.1,2.8-30.1,2.8v0c-0.1,0-22-1.7-30.1-2.7
				c-8.1-1.1-0.3-4.1-105.8,28.5c0,0,56.1,9.4,70.5,8.8c14.5-0.7,55.5-4.3,65.3-4v0c9.8-0.3,50.9,3.4,65.3,4
				c14.5,0.7,70.5-8.8,70.5-8.8C324.2,161.6,331.9,164.6,323.9,165.6z"/>
			<path id="XMLID_164_" class="st15" d="M198.2,195c3.6,0,5.2-8.3,5.9-14.2l-46.2,13.4c0.7,0.3,4.6,0.9,10,1.6
				C179.2,196,194.2,195,198.2,195z"/>
			<path id="XMLID_167_" class="st16" d="M198.2,195c-3.9,0-18.9,1-30.2,0.8c13.8,1.9,36.7,4.6,36.7,4.6v-19.7l-0.5,0.1
				C203.4,186.7,201.7,195,198.2,195z"/>
			<path id="XMLID_55_" class="st15" d="M282.5,195.9c4.2-2.2,7.9-18,9.8-28.1c-36-14.2-87.7,12.8-87.7,12.8v19.7
				c2.3,0.9,4.8,1.7,7.4,2.3C243.3,203.9,276.9,198.8,282.5,195.9z"/>
			<path id="XMLID_197_" class="st16" d="M292.3,167.8c-1.9,10.1-5.6,25.8-9.8,28.1c-5.6,3-39.3,8-70.6,6.8c3.1,0.8,6.5,1.4,9.9,1.8
				c31.6,4,72-5.6,72-5.6v-30.5c-0.4-0.2-0.9-0.4-1.3-0.5C292.4,167.8,292.4,167.8,292.3,167.8z"/>
			<path id="XMLID_204_" class="st15" d="M389.4,195c-3.6,0-5.2-8.3-5.9-14.2l46.2,13.4c-0.7,0.3-4.6,0.9-10,1.6
				C408.4,196,393.3,195,389.4,195z"/>
			<path id="XMLID_203_" class="st16" d="M389.4,195c3.9,0,18.9,1,30.2,0.8c-13.8,1.9-36.7,4.6-36.7,4.6v-19.7l0.5,0.1
				C384.2,186.7,385.8,195,389.4,195z"/>
			<path id="XMLID_202_" class="st15" d="M371.7,195c4.2-4.1,7.9-33.1,9.8-51.7c-36-26.1-87.7,23.6-87.7,23.6v36.3
				c2.3,1.7,4.8,3.1,7.4,4.2C332.5,209.8,366.1,200.5,371.7,195z"/>
			<path id="XMLID_201_" class="st16" d="M381.5,143.3c-1.9,18.5-5.6,47.6-9.8,51.7c-5.6,5.5-39.3,14.8-70.6,12.5
				c3.1,1.4,6.5,2.5,9.9,3.3c31.6,7.3,72-10.3,72-10.3v-56.1c-0.4-0.3-0.9-0.7-1.3-1C381.6,143.4,381.6,143.4,381.5,143.3z"/>
			<path id="XMLID_165_" class="st17" d="M204.1,180.8c0,0,46-10.1,55-9.1c9,1,39.7,4,69,1c29.3-3,70.7,12.3,70.7,12.3
				s-62-27.3-80.7-28c-18.7-0.7-78.7,0-78.7,0L204.1,180.8z"/>
		</g>
	</g>
	<g id="XMLID_13_">
		<path id="XMLID_148_" class="st4" d="M973.6,773.4c0,0,40-111.1,152-96.9c112,14.2,173.3,84.2,178,96.9
			c4.7,12.7-146.7,98.7-198,75.3C1054.3,825.4,973.6,773.4,973.6,773.4z"/>
		<path id="XMLID_25_" class="st5" d="M1130.1,807.8v-15.7c0,0-0.1-4.8-8.6-7s-27.8,0.5-30.5,5.8s-2.1,8.8-2.1,8.8
			S1106.5,818.9,1130.1,807.8z"/>
		<path id="XMLID_23_" class="st5" d="M1088.9,799.7l1.1-8.1c0,0-0.8-5.3-14.5-7.3c-13.7-2-29.7-1-30.8,4
			C1043.6,793.3,1088.9,799.7,1088.9,799.7z"/>
		<path id="XMLID_28_" class="st5" d="M1130.1,807.7v-15.7c0,0,0.1-4.8,8.6-7s27.8,0.5,30.5,5.8s2.1,8.8,2.1,8.8
			S1153.8,818.9,1130.1,807.7z"/>
		<path id="XMLID_27_" class="st5" d="M1171.4,799.7l-1.1-8.1c0,0,0.8-5.3,14.5-7.3c13.7-2,29.7-1,30.8,4
			C1216.7,793.2,1171.4,799.7,1171.4,799.7z"/>
		<path id="XMLID_54_" class="st2" d="M1130.1,880.1c-88.1-1.3-152.8-36.7-188.4-62.6c59.5,95.8,188.4,88.6,188.4,88.6v0
			c0,0,135.7,8.5,191.7-91.2C1293,839.4,1228.9,881.5,1130.1,880.1z"/>
		<path id="XMLID_83_" class="st3" d="M1263,652.1c-67.5-50.5-100-30-100-30s-28,8.8-32.9,9v0c-4.9-0.3-32.9-9-32.9-9
			s-32.5-20.5-100,30s-76.5,116.5-76.5,116.5c5.1,18.7,12.3,34.9,21,48.9c35.6,25.8,100.3,61.3,188.4,62.6
			c98.8,1.4,162.8-40.7,191.7-65.2c7.5-13.4,13.6-28.7,17.7-46.3C1339.5,768.6,1330.5,702.6,1263,652.1z M1261.7,784.6
			c-7.2,0.7-45.4,2.3-70.4,7.3s-38.3,15.9-61.1,15.9v0c-22.8,0-36.1-10.9-61.1-15.9s-63.3-6.6-70.4-7.3c-7.2-0.7-15.8-10-15.8-10
			c36-84,147.4-76.3,147.4-76.3v0c0,0,111.4-7.8,147.4,76.3C1277.5,774.6,1268.9,783.9,1261.7,784.6z"/>
		<path id="XMLID_18_" class="st5" d="M1127,698.2c0,0,3.2,3.9,3.1,14.6c-0.1,10.8,0,29,0,29s0.4,11.3-15.1,12.5s-54.8,1-60-9
			s1.5-35,1.5-36.2C1056.5,707.8,1092.6,692.8,1127,698.2z"/>
		<path id="XMLID_24_" class="st5" d="M1053,710.4c0,0,2.5,0,0,28.5c0,0-21.4,7.8-41.1-4.5C1012,734.4,1030.3,714.4,1053,710.4z"/>
		<path id="XMLID_30_" class="st5" d="M1133.3,698.2c0,0-3.2,3.9-3.1,14.6c0.1,10.8,0,29,0,29s-0.4,11.3,15.1,12.5s54.8,1,60-9
			s-1.5-35-1.5-36.2C1203.8,707.8,1167.7,692.8,1133.3,698.2z"/>
		<path id="XMLID_29_" class="st5" d="M1207.3,710.3c0,0-2.5,0,0,28.5c0,0,21.4,7.8,41.1-4.5C1248.3,734.3,1230,714.4,1207.3,710.3z
			"/>
		<path id="XMLID_52_" class="st6" d="M1187,632.7c-16.8-0.4-56.9,14.9-56.9,14.9s-40.1-15.2-56.9-14.9
			c-16.8,0.4-74.5,38.4-74.5,38.4s62-17.5,77-16s54.4,17.5,54.4,17.5s39.4-16,54.4-17.5s77,16,77,16S1203.8,633.1,1187,632.7z"/>
		<path id="XMLID_58_" class="st6" d="M1165.8,817.3c-14.5,9.5-35.6,8.3-35.6,8.3s-21.1,1.3-35.6-8.3c-3.7-2.4-8.7-4.3-14-5.6
			c-5.8-1.5-9.4,6-4.8,9.7c5,4.1,8.3,8.5,14.4,13.6c12.8,10.8,40.1,9,40.1,9s27.4,1.8,40.1-9c6.1-5.1,9.4-9.5,14.4-13.6
			c4.6-3.8,0.9-11.2-4.8-9.7C1174.5,813.1,1169.5,814.9,1165.8,817.3z"/>
		<path id="XMLID_47_" class="st10" d="M1130.1,698.3L1130.1,698.3c0,0-111.4-7.7-147.4,76.3c0,0,8.7,9.3,15.8,10
			c7.2,0.7,45.4,2.3,70.4,7.3s38.3,15.9,61.1,15.9v0c22.8,0,36.1-10.9,61.1-15.9s63.3-6.6,70.4-7.3s15.8-10,15.8-10
			C1241.5,690.6,1130.1,698.3,1130.1,698.3z"/>
	</g>
</g>
</svg>
