<?xml version="1.0" encoding="utf-8"?>
<!-- Generator: Adobe Illustrator 18.0.0, SVG Export Plug-In . SVG Version: 6.00 Build 0)  -->
<!DOCTYPE svg PUBLIC "-//W3C//DTD SVG 1.1//EN" "http://www.w3.org/Graphics/SVG/1.1/DTD/svg11.dtd">
<svg version="1.1" xmlns="http://www.w3.org/2000/svg" xmlns:xlink="http://www.w3.org/1999/xlink" x="0px" y="0px"
	 viewBox="0 0 1400 1400" enable-background="new 0 0 1400 1400" xml:space="preserve">
<g id="Background">
	<rect x="-11" y="-21.1" fill="#D1EEFC" width="1424" height="1433.3"/>
</g>
<g id="Object">
	<path fill="#B1E3FA" d="M530,975.2c-56.1,6.8-94.6,19.6-176.7,19.6s-120.6-12.8-176.7-19.6c-41.1-5-69.3,13-85.4,40.6
		c-22.3,38.1-21.3,94.6,1.5,133.4c27.1,57.8,69.8,93.2,112.8,114.9c73.3,37,147.7,34.1,147.7,34.1s74.4,2.8,147.7-34.1
		c43.1-21.7,85.8-57.1,112.8-114.9c22.8-38.9,23.8-95.3,1.5-133.4C599.3,988.3,571.1,970.2,530,975.2z"/>
	<path fill="#B1E3FA" d="M843.7,385c22.7,26,52.9,35.6,79.3,36.7c21.9,0.9,41.3-4.1,51.5-10.6c22.6-14.3,39.3-16.7,39.3-16.7
		s16.7,2.4,39.3,16.7c10.3,6.5,29.6,11.5,51.5,10.6c26.4-1.1,56.6-10.7,79.3-36.7c3.3-3.8,6.5-7.9,9.5-12.2
		c35.1-49.7,51.6-131.8,42.8-215c-1.8-17.6-6-32.8-11.7-46.1c-23.8-55.1-75.4-75-106-74c-48.8,0-76.1,26.2-104.7,28.6
		c-28.6-2.4-55.9-28.6-104.7-28.6c-30.7-1-82.2,19-106,74c-5.7,13.3-9.9,28.6-11.7,46.1c-8.8,83.2,7.7,165.4,42.8,215
		C837.2,377.1,840.4,381.2,843.7,385z"/>
	<path fill="#B1E3FA" d="M558.6,716.6c66.2-63.9,72.1-133.5,60.1-170.9c-2.2-7-5.1-12.9-8.4-17.4c-20.5-28.6-59.8-34.8-116-34.8
		s-141,4.5-141,4.5s-84.8-4.5-141-4.5s-95.5,6.2-116,34.8c-3.2,4.5-6.1,10.4-8.4,17.4c-12,37.4-6,107,60.1,170.9
		c3.5,3.4,7.1,6.5,10.7,9.5c23.5,19.4,50.3,32,76.3,40c-5.6,26.8-5.4,55,4,79c25.9,66,114.2,67.8,114.2,67.8s88.3-1.8,114.2-67.8
		c9.4-24,9.6-52.2,4-79c26-8.1,52.8-20.6,76.3-40C551.5,723.1,555.1,719.9,558.6,716.6z"/>
	<path fill="#B1E3FA" d="M652.7,170.7c-9.6-54.2-68.7-70.8-110.8-61.7c-44,9.5-109.5,35.1-188.6,47c-79.1-11.9-144.5-37.5-188.6-47
		C122.6,100,63.6,116.5,54,170.7c-0.4,2.4-0.8,4.8-1,7.3c-2,22.9,5.2,47,19.3,69.9c22.8,37,63.6,70.6,112.2,90.1
		c78.5,31.5,168.9,26.8,168.9,26.8s90.4,4.8,168.9-26.8c48.6-19.5,89.4-53.1,112.2-90.1c14.1-22.8,21.3-47,19.3-69.9
		C653.5,175.5,653.2,173.1,652.7,170.7z"/>
	<path fill="#B1E3FA" d="M1295.7,534.2c-10.7-15.1-24.8-27.1-41.5-34.5c-78.5-34.5-164.2,10.7-240.3,15.5
		c-76.1-4.8-161.8-50-240.3-15.5c-16.8,7.4-30.8,19.4-41.5,34.5c-39.4,55.5-33.4,152.9,49.9,216.5c13.8,10.5,27.9,19.5,42.1,27.2
		c11.2,6.1,22.3,11.4,33.4,16c82.3,34.2,156.5,29.4,156.5,29.4s74.2,4.9,156.5-29.4c11-4.6,22.2-9.9,33.4-16
		c14.2-7.7,28.3-16.7,42.1-27.2C1329,687.1,1335.1,589.7,1295.7,534.2z"/>
	<path fill="#B1E3FA" d="M1013.8,887.2c-45.9-1.1-127.1,22.4-173.1,86.1c-27.3,37.7-42.3,89.6-30.3,158.7
		c4.2,24.3,10.8,45.3,19,63.4c13.6,30,31.9,52.1,51.6,68.5c15.9,13.2,32.7,22.6,48.8,29.4c44.6,18.6,84,16.8,84,16.8
		s39.4,1.8,84-16.8c16.1-6.7,33-16.2,48.8-29.4c19.7-16.4,38-38.5,51.6-68.5c8.3-18.1,14.8-39.1,19-63.4c11.9-69.2-3-121-30.3-158.7
		C1140.9,909.6,1059.8,886.1,1013.8,887.2z"/>
	<g>
		<path fill="#F05862" d="M367.9,1268.2v-81.3c-29.8,0-89.4,5.7-147.7,45.9C255,1253.2,302.7,1267.2,367.9,1268.2z"/>
		<path fill="#7E143A" d="M326.8,1131.7c-27.7-0.9-42.8-33.9-42.8-33.9s-8,23.2-40.2,22.3c-32.1-0.9-43.7-37.5-43.7-37.5
			c-5.4,8-24.1,25-50,15.2c-8.7-3.3-15-9.6-19.5-16.4c0,1-0.1,2-0.1,3c0,34.3,15.7,105.4,89.6,148.4c58.4-40.2,117.9-46,147.7-45.9
			v-81.1C359.9,1118.5,346.5,1132.4,326.8,1131.7z"/>
		<path fill="#FFFFFF" d="M246.5,1043.4c-54.2-10.5-113.5-10.7-115.9,38c4.5,6.8,10.8,13.1,19.5,16.4c25.9,9.8,44.6-7.1,50-15.2
			c0,0,11.6,36.6,43.7,37.5c32.1,0.9,40.2-22.3,40.2-22.3s15.2,33,42.8,33.9c19.7,0.6,33.1-13.2,41-25.9v-50.5
			C341.2,1054.3,286.8,1051.2,246.5,1043.4z"/>
		<path fill="#EF6656" d="M246.5,1043.4c40.3,7.8,94.7,10.9,121.3,11.9v-40.5c-82.1,0-120.6-12.8-176.7-19.6
			c-41.1-5-69.3,13-85.4,40.6c-22.3,38.1-21.3,94.6,1.5,133.4c27.1,57.8,69.8,93.2,112.8,114.9c73.3,37,147.7,34.1,147.7,34.1v-50
			c-65.2-1-112.9-15.1-147.7-35.4c-73.9-43-89.6-114.1-89.6-148.4c0-1,0.1-2,0.1-3C133,1032.7,192.3,1032.9,246.5,1043.4z"/>
		<path fill="#E4535D" d="M367.9,1268.2v-81.3c29.8,0,89.4,5.7,147.7,45.9C480.8,1253.2,433,1267.2,367.9,1268.2z"/>
		<path fill="#781037" d="M408.9,1131.7c27.7-0.9,42.8-33.9,42.8-33.9s8,23.2,40.2,22.3c32.1-0.9,43.7-37.5,43.7-37.5
			c5.4,8,24.1,25,50,15.2c8.7-3.3,15-9.6,19.5-16.4c0,1,0.1,2,0.1,3c0,34.3-15.7,105.4-89.6,148.4c-58.4-40.2-117.9-46-147.7-45.9
			v-81.1C375.9,1118.5,389.2,1132.4,408.9,1131.7z"/>
		<path fill="#F1F2F2" d="M489.2,1043.4c54.2-10.5,113.5-10.7,115.9,38c-4.5,6.8-10.8,13.1-19.5,16.4c-25.9,9.8-44.6-7.1-50-15.2
			c0,0-11.6,36.6-43.7,37.5c-32.1,0.9-40.2-22.3-40.2-22.3s-15.2,33-42.8,33.9c-19.7,0.6-33.1-13.2-41-25.9v-50.5
			C394.5,1054.3,448.9,1051.2,489.2,1043.4z"/>
		<path fill="#D85C4E" d="M489.2,1043.4c-40.3,7.8-94.7,10.9-121.3,11.9v-40.5c82.1,0,120.6-12.8,176.7-19.6
			c41.1-5,69.3,13,85.4,40.6c22.3,38.1,21.3,94.6-1.5,133.4c-27.1,57.8-69.8,93.2-112.8,114.9c-73.3,37-147.7,34.1-147.7,34.1v-50
			c65.2-1,112.9-15.1,147.7-35.4c73.9-43,89.6-114.1,89.6-148.4c0-1-0.1-2-0.1-3C602.7,1032.7,543.4,1032.9,489.2,1043.4z"/>
	</g>
	<g>
		<path fill="#7E143A" d="M915,347.5c-12.4-135.6,89.3-161.8,97.8-148.3c12.5,22.3-16.1,41.9-10.3,62.9
			c3.4,12.3,16.5,15.1,25.7,15.5V146.9c-7.1,0.1-9.5,29.7-46.4,32.1c-36.9,2.4-48.8-29.7-53.5-29.7c-4.8,0-9.5,20.2-47.6,20.2
			c-11.2,0-22.5-4.8-32.9-11.5c-17.1,43.1-13.3,104.5,2,154.2c6.6,21.5,13.8,38.9,22.4,52.7c10.6-10.1,22.4-18.2,33.5-18.2
			C909.2,346.7,912.2,347,915,347.5z"/>
		<path fill="#FFFFFF" d="M928.4,149.2c4.8,0,16.7,32.1,53.5,29.7c36.9-2.4,39.3-32,46.4-32.1v-28.5c-16.4-1.3-40.2-4.3-54.7-10.9
			c-23.8-10.7-75-17.8-109.5,22.6c-6.7,7.9-12.1,17.3-16.2,27.8c10.4,6.7,21.7,11.5,32.9,11.5C918.9,169.4,923.6,149.2,928.4,149.2z
			"/>
		<path fill="#450E25" d="M1002.6,262.1c-5.8-21,22.8-40.6,10.3-62.9c-8.5-13.5-110.2,12.7-97.8,148.3c21.3,3.6,24.7,19.5,30,19.5
			c6,0,14.3-26.2,42.9-25c20.8,0.9,32.1,15.7,40.4,24.8v-89.1C1019.1,277.2,1006,274.4,1002.6,262.1z"/>
		<path fill="#CC3955" d="M864.1,130.2c34.5-40.4,85.7-33.3,109.5-22.6c14.5,6.5,38.4,9.5,54.7,10.9V86.2
			c-28.6-2.4-55.9-28.6-104.7-28.6c-30.7-1-82.2,19-106,74c-5.7,13.3-9.9,28.6-11.7,46.1c-8.8,83.2,7.7,165.4,42.8,215
			c3,4.3,6.2,8.4,9.5,12.2c22.7,26,52.9,35.6,79.3,36.7c21.9,0.9,41.3-4.1,51.5-10.6c22.6-14.3,39.3-16.7,39.3-16.7v-30.2
			c-25.8-2.3-42.6,22.9-86.9,20.7c-5.7-0.3-11-0.9-16.1-2c-23.1-4.6-39.7-17-53-38.1c-8.6-13.8-15.8-31.2-22.4-52.7
			c-15.3-49.8-19.1-111.1-2-154.2C852,147.5,857.4,138.1,864.1,130.2z"/>
		<path fill="#FFFFFF" d="M987.9,342c-28.6-1.2-36.9,25-42.9,25c-5.3,0-8.7-15.8-30-19.5c-2.8-0.5-5.8-0.8-9.2-0.8
			c-11,0-22.9,8.1-33.5,18.2c13.2,21.2,29.8,33.5,53,38.1c5.1,1,10.4,1.7,16.1,2c44.3,2.2,61.1-23,86.9-20.7v-17.5
			C1020,357.7,1008.7,342.8,987.9,342z"/>
		<path fill="#781037" d="M1141.6,347.5c12.4-135.6-89.3-161.8-97.8-148.3c-12.5,22.3,16.1,41.9,10.3,62.9
			c-3.4,12.3-16.5,15.1-25.7,15.5V146.9c7.1,0.1,9.5,29.7,46.4,32.1c36.9,2.4,48.8-29.7,53.5-29.7c4.8,0,9.5,20.2,47.6,20.2
			c11.2,0,22.5-4.8,32.9-11.5c17.1,43.1,13.3,104.5-2,154.2c-6.6,21.5-13.8,38.9-22.4,52.7c-10.6-10.1-22.4-18.2-33.5-18.2
			C1147.4,346.7,1144.4,347,1141.6,347.5z"/>
		<path fill="#F1F2F2" d="M1128.2,149.2c-4.8,0-16.7,32.1-53.5,29.7c-36.9-2.4-39.3-32-46.4-32.1v-28.5c16.4-1.3,40.2-4.3,54.7-10.9
			c23.8-10.7,75-17.8,109.5,22.6c6.7,7.9,12.1,17.3,16.2,27.8c-10.4,6.7-21.7,11.5-32.9,11.5C1137.8,169.4,1133,149.2,1128.2,149.2z
			"/>
		<path fill="#3F0820" d="M1054,262.1c5.8-21-22.8-40.6-10.3-62.9c8.5-13.5,110.2,12.7,97.8,148.3c-21.3,3.6-24.7,19.5-30,19.5
			c-6,0-14.3-26.2-42.9-25c-20.8,0.9-32.1,15.7-40.4,24.8v-89.1C1037.5,277.2,1050.6,274.4,1054,262.1z"/>
		<path fill="#BA334D" d="M1192.5,130.2c-34.5-40.4-85.7-33.3-109.5-22.6c-14.5,6.5-38.4,9.5-54.7,10.9V86.2
			c28.6-2.4,55.9-28.6,104.7-28.6c30.7-1,82.2,19,106,74c5.7,13.3,9.9,28.6,11.7,46.1c8.8,83.2-7.7,165.4-42.8,215
			c-3,4.3-6.2,8.4-9.5,12.2c-22.7,26-52.9,35.6-79.3,36.7c-21.9,0.9-41.3-4.1-51.5-10.6c-22.6-14.3-39.3-16.7-39.3-16.7v-30.2
			c25.8-2.3,42.6,22.9,86.9,20.7c5.7-0.3,11-0.9,16.1-2c23.1-4.6,39.7-17,53-38.1c8.6-13.8,15.8-31.2,22.4-52.7
			c15.3-49.8,19.1-111.1,2-154.2C1204.6,147.5,1199.2,138.1,1192.5,130.2z"/>
		<path fill="#F1F2F2" d="M1068.8,342c28.6-1.2,36.9,25,42.9,25c5.3,0,8.7-15.8,30-19.5c2.8-0.5,5.8-0.8,9.2-0.8
			c11,0,22.9,8.1,33.5,18.2c-13.2,21.2-29.8,33.5-53,38.1c-5.1,1-10.4,1.7-16.1,2c-44.3,2.2-61.1-23-86.9-20.7v-17.5
			C1036.6,357.7,1047.9,342.8,1068.8,342z"/>
	</g>
	<g>
		<path fill="#7E143A" d="M320.6,621.5c-36.6-4.5-34.8-34.8-41.9-34.8s-13.4,28.6-45.9,24.1c-32.5-4.5-37-41-45.1-38.4
			c-19.1,19.6-37.6,19.8-49.8,16.5c-3.6,28.3,8.3,74.3,50,119.1c1.8,2,3.8,3.9,5.7,5.7c11.6-10,27.6-17.9,46.7-12
			c25.7,8,41.9,35.7,50.2,54.6c32.9,6.1,63,6.6,77.4,6.3V593.6C360.1,605.1,347,624.7,320.6,621.5z"/>
		<path fill="#FFFFFF" d="M234.7,545.7c-41,0-74.9,2.4-89.9,23.2c-3.4,4.8-5.9,11.6-6.9,20.1c12.2,3.3,30.7,3.1,49.8-16.5
			c8-2.7,12.5,33.9,45.1,38.4c32.5,4.5,38.8-24.1,45.9-24.1s5.4,30.3,41.9,34.8c26.5,3.2,39.5-16.4,47.3-27.9v-45.1
			C336.8,547.6,266.2,545.7,234.7,545.7z"/>
		<path fill="#CC3955" d="M144.8,568.8c15-20.8,48.9-23.2,89.9-23.2c31.5,0,102.1,1.9,133.2,2.8V518c0,0-84.8-4.5-141-4.5
			s-95.5,6.2-116,34.8c-3.2,4.5-6.1,10.4-8.4,17.4c-12,37.4-6,107,60.1,170.9c3.5,3.4,7.1,6.5,10.7,9.5c27.7,22.9,60,36.3,90.2,44
			c55.7,14.1,104.3,9,104.3,9v-36.3c-14.4,0.2-44.5-0.2-77.4-6.3c-34.1-6.3-71.1-18.7-96.9-42.6c-2-1.8-3.9-3.7-5.7-5.7
			c-41.7-44.9-53.6-90.9-50-119.1C138.9,580.5,141.4,573.6,144.8,568.8z"/>
		<path fill="#FFFFFF" d="M240.3,701.8c-19.1-5.9-35.1,2-46.7,12c25.8,23.9,62.8,36.3,96.9,42.6C282.1,737.5,266,709.8,240.3,701.8z
			"/>
		<path fill="#781037" d="M415.2,621.5c36.6-4.5,34.8-34.8,41.9-34.8s13.4,28.6,45.9,24.1c32.5-4.5,37-41,45.1-38.4
			c19.1,19.6,37.6,19.8,49.8,16.5c3.6,28.3-8.3,74.3-50,119.1c-1.8,2-3.8,3.9-5.7,5.7c-11.6-10-27.6-17.9-46.7-12
			c-25.7,8-41.9,35.7-50.2,54.6c-32.9,6.1-63,6.6-77.4,6.3V593.6C375.7,605.1,388.7,624.7,415.2,621.5z"/>
		<path fill="#F1F2F2" d="M501,545.7c41,0,74.9,2.4,89.9,23.2c3.4,4.8,5.9,11.6,6.9,20.1c-12.2,3.3-30.7,3.1-49.8-16.5
			c-8-2.7-12.5,33.9-45.1,38.4c-32.5,4.5-38.8-24.1-45.9-24.1s-5.4,30.3-41.9,34.8c-26.5,3.2-39.5-16.4-47.3-27.9v-45.1
			C398.9,547.6,469.5,545.7,501,545.7z"/>
		<path fill="#BA334D" d="M590.9,568.8c-15-20.8-48.9-23.2-89.9-23.2c-31.5,0-102.1,1.9-133.2,2.8V518c0,0,84.8-4.5,141-4.5
			s95.5,6.2,116,34.8c3.2,4.5,6.1,10.4,8.4,17.4c12,37.4,6,107-60.1,170.9c-3.5,3.4-7.1,6.5-10.7,9.5c-27.7,22.9-60,36.3-90.2,44
			c-55.7,14.1-104.3,9-104.3,9v-36.3c14.4,0.2,44.5-0.2,77.4-6.3c34.1-6.3,71.1-18.7,96.9-42.6c2-1.8,3.9-3.7,5.7-5.7
			c41.7-44.9,53.6-90.9,50-119.1C596.8,580.5,594.4,573.6,590.9,568.8z"/>
		<path fill="#F1F2F2" d="M495.5,701.8c19.1-5.9,35.1,2,46.7,12c-25.8,23.9-62.8,36.3-96.9,42.6
			C453.6,737.5,469.8,709.8,495.5,701.8z"/>
		<path fill="#F26868" d="M367.9,696.4v236.5c0,0-88.3-1.8-114.2-67.8s17.9-163.9,59.8-176.7C348.2,677.8,356.3,696.4,367.9,696.4z"
			/>
		<path fill="#E56363" d="M367.9,696.4v236.5c0,0,88.3-1.8,114.2-67.8c25.9-66-17.9-163.9-59.8-176.7
			C387.5,677.8,379.5,696.4,367.9,696.4z"/>
	</g>
	<g>
		<path fill="#7E143A" d="M145.4,255.9c33.9,8.2,36.3,40.3,39.9,41.5c3.6,1.2,25-24.4,55.3-14.9c30.3,9.5,28,29.7,33.9,32.1
			c5.9,2.4,12.5-21.4,43.4-22.6c30.8,0,40.2,25.7,50,34.6v-88.9c-8.7,8.5-19.9,37.9-51.2,35.3c-35.7-3-41-36.3-45.2-36.9
			c-4.2-0.6-14.9,26.2-48.8,24.3c-33.9-1.9-37.5-36.8-41.6-38c-4.2-1.2-12.5,22.6-44,19c-10.7-1.2-19-6-25.4-11.8
			c1.5,8.8,5.1,17.5,10.2,25.9C129.8,254.2,137.9,254.1,145.4,255.9z"/>
		<path fill="#FFFFFF" d="M181.1,222.5c4.2,1.2,7.7,36.1,41.6,38c33.9,1.9,44.6-24.9,48.8-24.3c4.2,0.6,9.5,33.9,45.2,36.9
			c31.3,2.6,42.5-26.8,51.2-35.3v-31.9c-82.4-0.4-152.3-30.5-182-36.9c-31.3-6.8-71.1,3.3-74.9,45.9c-0.4,5-0.2,9.9,0.7,14.9
			c6.4,5.8,14.7,10.6,25.4,11.8C168.6,245.1,176.9,221.3,181.1,222.5z"/>
		<path fill="#F3809E" d="M185.8,168.9c29.7,6.4,99.6,36.6,182,36.9v-29.8c-79.1-11.9-144.5-37.5-188.6-47
			c-42.2-9.1-101.2,7.4-110.8,61.7c-0.4,2.4-0.8,4.8-1,7.3c-2,22.9,5.2,47,19.3,69.9c22.8,37,63.6,70.6,112.2,90.1
			c78.5,31.5,168.9,26.8,168.9,26.8v-31.7c-32.2-2-115.8-9.1-159.4-29c-36.9-16.8-70.1-41.3-86.6-68.6c-5.1-8.4-8.6-17.1-10.2-25.9
			c-0.9-4.9-1.1-9.9-0.7-14.9C114.8,172.2,154.6,162.2,185.8,168.9z"/>
		<path fill="#FFFFFF" d="M317.9,292.1c-30.9,1.2-37.5,25-43.4,22.6c-5.9-2.4-3.6-22.6-33.9-32.1c-30.3-9.5-51.8,16.1-55.3,14.9
			c-3.6-1.2-5.9-33.3-39.9-41.5c-7.5-1.8-15.6-1.7-23.6-0.3c16.5,27.3,49.7,51.7,86.6,68.6c43.6,19.9,127.3,27,159.4,29v-26.5
			C358.1,317.8,348.7,292.1,317.9,292.1z"/>
		<path fill="#781037" d="M590.3,255.9c-33.9,8.2-36.3,40.3-39.9,41.5c-3.6,1.2-25-24.4-55.3-14.9c-30.3,9.5-28,29.7-33.9,32.1
			c-5.9,2.4-12.5-21.4-43.4-22.6c-30.8,0-40.2,25.7-50,34.6v-88.9c8.7,8.5,19.9,37.9,51.2,35.3c35.7-3,41-36.3,45.2-36.9
			c4.2-0.6,14.9,26.2,48.8,24.3c33.9-1.9,37.5-36.8,41.6-38c4.2-1.2,12.5,22.6,44,19c10.7-1.2,19-6,25.4-11.8
			c-1.5,8.8-5.1,17.5-10.2,25.9C605.9,254.2,597.9,254.1,590.3,255.9z"/>
		<path fill="#F1F2F2" d="M554.6,222.5c-4.2,1.2-7.7,36.1-41.6,38c-33.9,1.9-44.6-24.9-48.8-24.3c-4.2,0.6-9.5,33.9-45.2,36.9
			c-31.3,2.6-42.5-26.8-51.2-35.3v-31.9c82.4-0.4,152.3-30.5,182-36.9c31.3-6.8,71.1,3.3,74.9,45.9c0.4,5,0.2,9.9-0.7,14.9
			c-6.4,5.8-14.7,10.6-25.4,11.8C567.1,245.1,558.8,221.3,554.6,222.5z"/>
		<path fill="#F16683" d="M549.9,168.9c-29.7,6.4-99.6,36.6-182,36.9v-29.8c79.1-11.9,144.5-37.5,188.6-47
			c42.2-9.1,101.2,7.4,110.8,61.7c0.4,2.4,0.8,4.8,1,7.3c2,22.9-5.2,47-19.3,69.9c-22.8,37-63.6,70.6-112.2,90.1
			c-78.5,31.5-168.9,26.8-168.9,26.8v-31.7c32.2-2,115.8-9.1,159.4-29c36.9-16.8,70.1-41.3,86.6-68.6c5.1-8.4,8.6-17.1,10.2-25.9
			c0.9-4.9,1.1-9.9,0.7-14.9C620.9,172.2,581.1,162.2,549.9,168.9z"/>
		<path fill="#F1F2F2" d="M417.8,292.1c30.9,1.2,37.5,25,43.4,22.6c5.9-2.4,3.6-22.6,33.9-32.1c30.3-9.5,51.8,16.1,55.3,14.9
			c3.6-1.2,5.9-33.3,39.9-41.5c7.5-1.8,15.6-1.7,23.6-0.3c-16.5,27.3-49.7,51.7-86.6,68.6c-43.6,19.9-127.3,27-159.4,29v-26.5
			C377.6,317.8,387,292.1,417.8,292.1z"/>
	</g>
	<g>
		<path fill="#7E143A" d="M887.9,748.1c6.4-2.1,12.1-3.1,17.1-3.3c11.3-11.9,25.9-22.6,44.7-31.2c27.6-12.6,54.1-17.5,78.5-17.8
			v-77.9c-8.5,14.5-19.8,28.8-42.8,25.6c-42.8-5.9-39.3-39.3-45.2-39.3c-5.9,0-13.1,34.5-51.2,23.8c-38.1-10.7-36.9-44-42.8-38.1
			c-5.9,5.9-17.8,27.4-48.8,17.8c-7.1-2.2-14.4-7.6-21.5-14.7c-17.5,46-4.6,113.5,51.3,157.5c9.7,7.6,20,14.3,30.7,20.2
			C866.9,760.6,877.1,751.7,887.9,748.1z"/>
		<path fill="#FFFFFF" d="M846.3,589.9c5.9-5.9,4.8,27.4,42.8,38.1c38.1,10.7,45.2-23.8,51.2-23.8c5.9,0,2.4,33.3,45.2,39.3
			c23,3.2,34.3-11.1,42.8-25.6v-48.3c-60.2-8.2-156.7-45.4-212.8-20.8c-18.4,8.1-31.9,24.1-39.6,44.3c7.1,7.1,14.4,12.5,21.5,14.7
			C828.4,617.3,840.3,595.9,846.3,589.9z"/>
		<path fill="#F26868" d="M905.1,744.9c20.5-0.6,31.2,12.3,38.8,19.9c8.3,1.2,10.7-26.2,47.6-27.4c17-0.5,28.9,7.8,36.9,16.9v-58.5
			c-24.4,0.3-50.9,5.2-78.5,17.8C930.9,722.3,916.3,733,905.1,744.9z"/>
		<path fill="#EF6656" d="M815.5,548.8c56.1-24.6,152.6,12.5,212.8,20.8v-34.4c-76.1-4.8-161.8-50-240.3-15.5
			c-16.8,7.4-30.8,19.4-41.5,34.5c-39.4,55.5-33.4,152.9,49.9,216.5c13.8,10.5,27.9,19.5,42.1,27.2c11.2,6.1,22.3,11.4,33.4,16
			c82.3,34.2,156.5,29.4,156.5,29.4v-28c-31.3-1.8-91.7-8.5-147.5-33.2c-7.7-3.4-15.4-7.2-22.8-11.4c-10.7-5.9-21.1-12.6-30.7-20.2
			C771.4,706.6,758.5,639,776,593.1C783.7,572.9,797.2,556.8,815.5,548.8z"/>
		<path fill="#FFFFFF" d="M991.4,737.4c-36.9,1.2-39.3,28.6-47.6,27.4c-7.6-7.6-18.3-20.6-38.8-19.9c-5.1,0.2-10.7,1.1-17.1,3.3
			c-10.8,3.6-21.1,12.5-29.9,22.6c7.5,4.1,15.1,7.9,22.8,11.4c55.7,24.6,116.2,31.3,147.5,33.2v-61
			C1020.4,745.2,1008.4,736.9,991.4,737.4z"/>
		<path fill="#781037" d="M1168.7,748.1c-6.4-2.1-12.1-3.1-17.1-3.3c-11.3-11.9-25.9-22.6-44.7-31.2c-27.6-12.6-54.1-17.5-78.5-17.8
			v-77.9c8.5,14.5,19.8,28.8,42.8,25.6c42.8-5.9,39.3-39.3,45.2-39.3c5.9,0,13.1,34.5,51.2,23.8c38.1-10.7,36.9-44,42.8-38.1
			c5.9,5.9,17.8,27.4,48.8,17.8c7.1-2.2,14.4-7.6,21.5-14.7c17.5,46,4.6,113.5-51.3,157.5c-9.7,7.6-20,14.3-30.7,20.2
			C1189.8,760.6,1179.5,751.7,1168.7,748.1z"/>
		<path fill="#F1F2F2" d="M1210.3,589.9c-5.9-5.9-4.8,27.4-42.8,38.1c-38.1,10.7-45.2-23.8-51.2-23.8c-5.9,0-2.4,33.3-45.2,39.3
			c-23,3.2-34.3-11.1-42.8-25.6v-48.3c60.2-8.2,156.7-45.4,212.8-20.8c18.4,8.1,31.9,24.1,39.6,44.3c-7.1,7.1-14.4,12.5-21.5,14.7
			C1228.2,617.3,1216.3,595.9,1210.3,589.9z"/>
		<path fill="#E56363" d="M1151.6,744.9c-20.5-0.6-31.2,12.3-38.8,19.9c-8.3,1.2-10.7-26.2-47.6-27.4c-17-0.5-28.9,7.8-36.9,16.9
			v-58.5c24.4,0.3,50.9,5.2,78.5,17.8C1125.7,722.3,1140.3,733,1151.6,744.9z"/>
		<path fill="#D85C4E" d="M1241.1,548.8c-56.1-24.6-152.6,12.5-212.8,20.8v-34.4c76.1-4.8,161.8-50,240.3-15.5
			c16.8,7.4,30.8,19.4,41.5,34.5c39.4,55.5,33.4,152.9-49.9,216.5c-13.8,10.5-27.9,19.5-42.1,27.2c-11.2,6.1-22.3,11.4-33.4,16
			c-82.3,34.2-156.5,29.4-156.5,29.4v-28c31.3-1.8,91.7-8.5,147.5-33.2c7.7-3.4,15.4-7.2,22.8-11.4c10.7-5.9,21.1-12.6,30.7-20.2
			c55.9-43.9,68.8-111.5,51.3-157.5C1273,572.9,1259.4,556.8,1241.1,548.8z"/>
		<path fill="#F1F2F2" d="M1065.2,737.4c36.9,1.2,39.3,28.6,47.6,27.4c7.6-7.6,18.3-20.6,38.8-19.9c5.1,0.2,10.7,1.1,17.1,3.3
			c10.8,3.6,21.1,12.5,29.9,22.6c-7.5,4.1-15.1,7.9-22.8,11.4c-55.7,24.6-116.2,31.3-147.5,33.2v-61
			C1036.3,745.2,1048.2,736.9,1065.2,737.4z"/>
	</g>
	<g>
		<path fill="#450E25" d="M1003.9,1133.9c-8.9-16.7,2.4-30.3,7.7-39.9c5.4-9.5,5.9-26.2-7.7-29.7c-13.7-3.6-74.4,14.3-87.4,90.4
			c-3.8,22.1-2.4,46.2,1.5,69.3c3.5,3.2,6,6.5,7.9,9.6c15.3-18.6,36-36,63.2-44.3c13.8-4.2,27-5.6,39.3-5.1v-38.8
			C1019.5,1145.6,1008.9,1143.2,1003.9,1133.9z"/>
		<path fill="#F05862" d="M989.1,1189.2c-27.2,8.3-47.9,25.7-63.2,44.3c3.8,6.1,5.7,11,9.7,11.6c8.3,1.2,13.1-25,45.2-22.6
			c41.9,3.1,35.9,26.5,47.6,32.9v-71.3C1016,1183.6,1002.8,1184.9,989.1,1189.2z"/>
		<path fill="#7E143A" d="M978.3,1042.8c-41,1.8-37.5-48.2-53.8-32.1c-11.9,15.1-24.3,18.3-34.9,16.6
			c-22.5,31.3-34.9,72.8-25.5,126.2c4.1,22.9,11.1,42,20,57.8c6.1,0.3,11.9,1.1,16.9,2.8c7.6,2.6,12.9,6.1,17,9.8
			c-3.9-23-5.3-47.1-1.5-69.3c13.1-76.1,73.8-94,87.4-90.4c13.7,3.6,13.1,20.2,7.7,29.7c-5.4,9.5-16.7,23.2-7.7,39.9
			c5,9.3,15.5,11.7,24.4,11.4v-138.6C1017.8,1017.7,1007.5,1041.6,978.3,1042.8z"/>
		<path fill="#FFFFFF" d="M889.6,1027.3c10.6,1.7,23-1.5,34.9-16.6c16.4-16.1,12.8,33.9,53.8,32.1c29.2-1.3,39.4-25.1,50-36.2v-57.3
			C987.7,953.4,925.6,977.3,889.6,1027.3z"/>
		<path fill="#F3809E" d="M1028.3,949.3v-42.1c-45.9-1.1-127.1,22.4-173.1,86.1c-27.3,37.7-42.3,89.6-30.3,158.7
			c4.2,24.3,10.8,45.3,19,63.4c13.6,30,31.9,52.1,51.6,68.5c15.9,13.2,32.7,22.6,48.8,29.4c44.6,18.6,84,16.8,84,16.8V1289
			c-22-0.4-65.7-5-103-31.7c-3.7-2.6-7.2-5.4-10.7-8.5c-11.3-9.9-21.8-22.2-30.4-37.4c-9-15.9-16-34.9-20-57.8
			c-9.4-53.3,2.9-94.9,25.5-126.2C925.6,977.3,987.7,953.4,1028.3,949.3z"/>
		<path fill="#FFFFFF" d="M980.7,1222.5c-32.1-2.4-36.9,23.8-45.2,22.6c-4-0.6-5.8-5.5-9.7-11.6c-1.9-3.1-4.4-6.4-7.9-9.6
			c-4-3.7-9.4-7.1-17-9.8c-4.9-1.7-10.7-2.6-16.9-2.8c8.6,15.3,19,27.5,30.4,37.4c3.5,3.1,7.1,5.9,10.7,8.5
			c37.3,26.7,81,31.3,103,31.7v-33.6C1016.6,1249,1022.6,1225.6,980.7,1222.5z"/>
		<path fill="#3F0820" d="M1052.7,1133.9c8.9-16.7-2.4-30.3-7.7-39.9c-5.4-9.5-5.9-26.2,7.7-29.7c13.7-3.6,74.4,14.3,87.4,90.4
			c3.8,22.1,2.4,46.2-1.5,69.3c-3.5,3.2-6,6.5-7.9,9.6c-15.3-18.6-36-36-63.2-44.3c-13.8-4.2-27-5.6-39.3-5.1v-38.8
			C1037.2,1145.6,1047.7,1143.2,1052.7,1133.9z"/>
		<path fill="#E4535D" d="M1067.6,1189.2c27.2,8.3,47.9,25.7,63.2,44.3c-3.8,6.1-5.7,11-9.7,11.6c-8.3,1.2-13.1-25-45.2-22.6
			c-41.9,3.1-35.9,26.5-47.6,32.9v-71.3C1040.6,1183.6,1053.8,1184.9,1067.6,1189.2z"/>
		<path fill="#781037" d="M1078.3,1042.8c41,1.8,37.5-48.2,53.8-32.1c11.9,15.1,24.3,18.3,34.9,16.6c22.5,31.3,34.9,72.8,25.5,126.2
			c-4.1,22.9-11.1,42-20,57.8c-6.1,0.3-11.9,1.1-16.9,2.8c-7.6,2.6-12.9,6.1-17,9.8c3.9-23,5.3-47.1,1.5-69.3
			c-13.1-76.1-73.8-94-87.4-90.4c-13.7,3.6-13.1,20.2-7.7,29.7c5.4,9.5,16.7,23.2,7.7,39.9c-5,9.3-15.5,11.7-24.4,11.4v-138.6
			C1038.9,1017.7,1049.1,1041.6,1078.3,1042.8z"/>
		<path fill="#F1F2F2" d="M1167,1027.3c-10.6,1.7-23-1.5-34.9-16.6c-16.4-16.1-12.8,33.9-53.8,32.1c-29.2-1.3-39.4-25.1-50-36.2
			v-57.3C1068.9,953.4,1131,977.3,1167,1027.3z"/>
		<path fill="#F16683" d="M1028.3,949.3v-42.1c45.9-1.1,127.1,22.4,173.1,86.1c27.3,37.7,42.3,89.6,30.3,158.7
			c-4.2,24.3-10.8,45.3-19,63.4c-13.6,30-31.9,52.1-51.6,68.5c-15.9,13.2-32.7,22.6-48.8,29.4c-44.6,18.6-84,16.8-84,16.8V1289
			c22-0.4,65.7-5,103-31.7c3.7-2.6,7.2-5.4,10.7-8.5c11.3-9.9,21.8-22.2,30.4-37.4c9-15.9,16-34.9,20-57.8
			c9.4-53.3-2.9-94.9-25.5-126.2C1131,977.3,1068.9,953.4,1028.3,949.3z"/>
		<path fill="#F1F2F2" d="M1075.9,1222.5c32.1-2.4,36.9,23.8,45.2,22.6c4-0.6,5.8-5.5,9.7-11.6c1.9-3.1,4.4-6.4,7.9-9.6
			c4-3.7,9.4-7.1,17-9.8c4.9-1.7,10.7-2.6,16.9-2.8c-8.6,15.3-19,27.5-30.4,37.4c-3.5,3.1-7.1,5.9-10.7,8.5
			c-37.3,26.7-81,31.3-103,31.7v-33.6C1040,1249,1034,1225.6,1075.9,1222.5z"/>
	</g>
</g>
</svg>
