<?xml version="1.0" encoding="utf-8"?>
<!-- Generator: Adobe Illustrator 18.0.0, SVG Export Plug-In . SVG Version: 6.00 Build 0)  -->
<!DOCTYPE svg PUBLIC "-//W3C//DTD SVG 1.1//EN" "http://www.w3.org/Graphics/SVG/1.1/DTD/svg11.dtd">
<svg version="1.1" xmlns="http://www.w3.org/2000/svg" xmlns:xlink="http://www.w3.org/1999/xlink" x="0px" y="0px"
	 viewBox="0 0 1400 1400" enable-background="new 0 0 1400 1400" xml:space="preserve">
<g id="Background">
	<rect x="-11" y="-20.3" fill="#80CCBC" width="1434" height="1431.2"/>
</g>
<g id="Object">
	<g>
		<path fill="#872032" d="M117.4,319.4c-20.9-21.2-27.7-52.6-30-70.2c-2,2.5-3.8,5.2-5.4,8.2c-7.3,13.7-6.2,29.2,3.3,44.9
			c5.2,8.7,13,17.5,23.2,26.1C110.7,325.8,113.7,322.6,117.4,319.4z"/>
		<path fill="#872032" d="M604.5,228.7c6.1,5.1,19.4,17.3,27.8,33.7c17.1-33.6,19.6-69.9,6.7-101c-6.8-16.2-16.1-28.5-28.1-36.8
			C614.7,161.5,612,200.2,604.5,228.7z"/>
		<path fill="#FFFDE3" d="M139.2,321.8c5.4-2.2,9.3-7.5,12.8-12.2c1.6-2.2,3.1-4.3,4.8-5.9c3.3-3.3,8.5-2.8,25.5-1.2
			c29.7,2.9,85,8.4,149-7.1c40.7-9.9,78.1-22.4,108.2-32.6c39.6-13.3,68.2-23,85.1-20.6c15.1,2.1,23,7.4,29.4,11.7
			c6,4,10.3,6.9,19.7,6.6c2.4-0.1,4.9-2.5,6.5-4.5c15.1-18.2,26.1-79,18.3-138.3c-9.7-4.1-20.7-6.2-33-6.2
			c-43.8,0-99.7,26.9-153.2,73.7c-37.8,33.1-90,37.5-136.1,37.5c-16.3,0-32.8-0.6-48.8-1.3c-15.6-0.6-30.4-1.2-44.6-1.2
			c-32.1,0-63.7,2.7-84.6,18.4C98.9,251.4,104.4,302.2,139.2,321.8z M587.9,135.5c3.8,9.1,3.4,18.2,3.4,27.9c0,14.6-0.7,29-3.1,43.4
			c-1.1,6.7-12.3,4.8-11.1-2.1c1.8-10.7,2.6-21.4,2.8-32.2c0.1-10.8,1.7-23.2-2.5-33.5C574.8,132.5,585.3,129.3,587.9,135.5z
			 M584.2,222.6c0.1,0.1,0.2,0.2,0.3,0.3c5.1,5.1-2.8,13.1-7.6,8.2c-0.2-0.2-0.4-0.4-0.7-0.7C571.2,225.4,579.3,217.8,584.2,222.6z
			 M146.3,299.2c0,0.2,0,0.4,0,0.6c0,3.1-2.1,5.6-5.2,6c-2.8,0.3-6.1-1.7-6.1-4.8c0-0.5,0-0.9,0-1.4
			C135.1,292.8,146.3,292.3,146.3,299.2z M114.6,271.7c-3-6.3-6.7-12.2-7.5-19.2c-0.8-6.8,10.3-9.4,11.1-2.6
			c0.8,6.8,4.5,12.6,7.5,18.7c2.5,5.2,5.1,10.2,8.6,14.8c4.3,5.7-3.9,12.3-8.4,7C121.1,284.6,117.9,278.3,114.6,271.7z"/>
		<path fill="#FFFDE3" d="M600.8,240.9c-3.3,9.4-7.2,17.2-11.7,22.6c-4.6,5.5-9.6,8.4-14.9,8.6c-13.2,0.7-20-4.1-26.7-8.5
			c-5.9-4-12.1-8.1-24.5-9.9c-14.1-1.9-43.1,7.8-79.8,20.1c-30.3,10.2-67.9,22.9-109.1,32.8c-65.9,16-122.4,10.4-152.8,7.4
			c-7-0.7-14.2-1.4-17.1-1.2c-0.8,1-1.8,2.3-2.8,3.6c-4.5,6.2-10.8,14.6-21.3,17.2c-0.5,0.1-0.9,0.2-1.4,0.2c-0.9,0-1.8-0.2-2.6-0.6
			c-3.5-1.8-6.7-3.9-9.8-6.1c-3.6,2.8-6.5,5.9-8.6,8.4c42.7,30.9,118,56.6,218.5,56.6c18.7,0,38-0.9,57.2-2.8
			c108.3-10.4,192.4-52,231.8-114.4C619.7,259.9,608.1,247.5,600.8,240.9z M429.8,374.2c-45.6,6-94.3,12.2-140.3,7.7
			c-6.9-0.7-7.7-11.2-0.4-10.5c46,4.5,94-2.3,139.6-7.8C435.9,362.8,436.9,373.2,429.8,374.2z M453.5,369.5
			c-7.3,0-7.4-10.8-0.3-10.8C460.5,358.7,460.7,369.5,453.5,369.5z"/>
		<path fill="#320000" d="M633.2,281.3c-0.6,0.2-1.1,0.2-1.7,0.2c-2.5,0-4.8-1.6-5.5-4.1c-0.3-0.9-0.6-1.7-0.9-2.5
			c-39.3,62.4-123.4,104-231.8,114.4c-19.2,1.8-38.5,2.8-57.2,2.8c-100.5,0-175.8-25.7-218.5-56.6c-2,2.4-3.2,4.2-3.2,4.3
			c-1.1,1.7-3,2.7-4.9,2.7c-0.8,0-1.6-0.2-2.4-0.6c44.3,33.6,123.4,61.8,229,61.8c19.1,0,38.7-1,58.3-2.8
			c113.3-10.9,201.4-55.4,242-122.2C635.8,279.9,634.7,280.9,633.2,281.3z"/>
		<path fill="#320000" d="M105.1,340.4c-1.6-1.9-1.9-4.6-0.5-6.8c0.1-0.2,1.5-2.3,3.9-5.2c-10.2-8.5-18-17.4-23.2-26.1
			c-9.4-15.7-10.6-31.3-3.3-44.9c1.6-3,3.4-5.7,5.4-8.2c-0.9-7.4-1.1-12.4-1.1-13.2c-0.1-3.2,2.5-5.8,5.7-5.9
			c3.1-0.3,5.8,2.5,5.9,5.7c0,0.1,0,1.1,0.1,2.9c20.9-15.8,52.5-18.4,84.6-18.4c14.3,0,29,0.6,44.6,1.2c15.9,0.6,32.4,1.3,48.8,1.3
			c46.1,0,98.3-4.5,136.1-37.5c53.5-46.9,109.4-73.7,153.2-73.7c12.3,0,23.3,2.1,33,6.2c-0.1-1-0.2-2-0.4-3.1
			c-0.4-3.2,1.7-6.1,4.9-6.5c3.1-0.5,6.1,1.8,6.6,4.9c0.5,3.8,1,7.7,1.4,11.6c11.9,8.3,21.3,20.6,28.1,36.8
			c13,31.1,10.4,67.4-6.7,101c1.9,3.7,3.5,7.6,4.8,11.7c0.5,1.5,0.3,3-0.4,4.3c0.1-0.2,0.3-0.4,0.4-0.6
			c23.6-39.4,28.2-83.4,12.6-120.9c-15.5-37.3-44.7-57-84.2-57c-46.6,0-105.2,27.9-160.9,76.6c-34.9,30.5-84.5,34.6-128.5,34.6
			c-16.1,0-32.5-0.6-48.3-1.2c-15.7-0.6-30.6-1.2-45.1-1.2c-45.6,0-90.6,5.2-110.9,43.2c-9.3,17.5-8.1,37,3.5,56.4
			C81.8,319.1,91.8,329.9,105.1,340.4z"/>
		<path fill="#320000" d="M117.4,319.4c1.9-1.6,3.8-3.1,6-4.4c2.7-1.7,6.3-0.8,8,1.9c1.7,2.7,0.8,6.3-1.9,8
			c-1.1,0.7-2.2,1.5-3.3,2.3c3,2.2,6.3,4.3,9.8,6.1c0.8,0.4,1.7,0.6,2.6,0.6c0.5,0,0.9-0.1,1.4-0.2c10.5-2.6,16.7-11.1,21.3-17.2
			c1-1.4,1.9-2.6,2.8-3.6c2.8-0.2,10,0.6,17.1,1.2c30.4,3,86.9,8.5,152.8-7.4c41.2-10,78.9-22.6,109.1-32.8
			c36.7-12.3,65.7-22,79.8-20.1c12.5,1.7,18.6,5.9,24.5,9.9c6.6,4.5,13.5,9.2,26.7,8.5c5.3-0.2,10.4-3.1,14.9-8.6
			c4.5-5.4,8.4-13.2,11.7-22.6c-3.7-3.4-6.3-5.3-6.4-5.4c-2.6-1.9-3.1-5.5-1.3-8.1c1.9-2.6,5.5-3.1,8.1-1.3c0.2,0.2,1.4,1.1,3.3,2.6
			c7.5-28.5,10.2-67.2,6.4-104.1c-3.9-2.7-8.1-5-12.5-6.9c7.8,59.3-3.2,120.1-18.3,138.3c-1.6,2-4.1,4.4-6.5,4.5
			c-9.4,0.4-13.7-2.5-19.7-6.6c-6.4-4.3-14.3-9.6-29.4-11.7c-16.9-2.4-45.5,7.3-85.1,20.6c-30.1,10.1-67.5,22.7-108.2,32.6
			c-64,15.5-119.3,10.1-149,7.1c-17-1.7-22.2-2.2-25.5,1.2c-1.6,1.6-3.1,3.7-4.8,5.9c-3.5,4.7-7.4,10-12.8,12.2
			c-34.8-19.6-40.3-70.4-41.1-83c-4,3-7.5,6.5-10.7,10.5C89.6,266.9,96.5,298.2,117.4,319.4z"/>
		<path fill="#320000" d="M609.5,113.1c-0.5-3.2-3.4-5.4-6.6-4.9c-3.2,0.5-5.4,3.4-4.9,6.5c0.1,1,0.2,2,0.4,3.1
			c4.4,1.9,8.6,4.1,12.5,6.9C610.5,120.7,610,116.9,609.5,113.1z"/>
		<path fill="#320000" d="M98.1,238.8c-0.1-1.8-0.1-2.8-0.1-2.9c-0.1-3.2-2.8-6-5.9-5.7c-3.2,0.1-5.7,2.7-5.7,5.9
			c0,0.7,0.1,5.7,1.1,13.2C90.6,245.2,94.1,241.7,98.1,238.8z"/>
		<path fill="#320000" d="M106.4,341.6c0.2,0.1,0.5,0.2,0.7,0.3c-0.7-0.5-1.3-1-2-1.6C105.5,340.8,105.9,341.3,106.4,341.6z"/>
		<path fill="#320000" d="M126.2,327.1c-3.2-2.4-6.2-4.9-8.9-7.7c-3.7,3.1-6.7,6.4-8.9,9c2.9,2.4,5.9,4.8,9.1,7.1
			C119.7,333.1,122.6,329.9,126.2,327.1z"/>
		<path fill="#320000" d="M114.4,339.8c0,0,1.2-1.8,3.2-4.3c-3.2-2.3-6.3-4.7-9.1-7.1c-2.3,2.8-3.7,5-3.9,5.2
			c-1.4,2.2-1.1,4.9,0.5,6.8c0.7,0.5,1.3,1,2,1.6c0.8,0.4,1.6,0.6,2.4,0.6C111.4,342.5,113.3,341.6,114.4,339.8z"/>
		<path fill="#320000" d="M131.4,316.9c-1.7-2.7-5.2-3.6-8-1.9c-2.2,1.4-4.2,2.9-6,4.4c2.7,2.7,5.7,5.3,8.9,7.7
			c1-0.8,2.1-1.6,3.3-2.3C132.2,323.2,133.1,319.6,131.4,316.9z"/>
		<path fill="#320000" d="M604.5,228.7c-1.1,4.3-2.4,8.3-3.7,12.1c7.3,6.7,18.9,19,24.3,34.1c0.7-1,1.4-2,2-3.1
			c1.9-3.1,3.6-6.3,5.2-9.4C623.9,246,610.6,233.8,604.5,228.7z"/>
		<path fill="#320000" d="M636.7,278.4c-0.1,0.1-0.1,0.2-0.2,0.3C636.5,278.6,636.6,278.5,636.7,278.4z"/>
		<path fill="#320000" d="M637.1,274.1c-1.2-4.1-2.9-8-4.8-11.7c-1.6,3.2-3.3,6.3-5.2,9.4c-0.6,1-1.4,2-2,3.1
			c0.3,0.8,0.6,1.7,0.9,2.5c0.8,2.5,3.1,4.1,5.5,4.1c0.6,0,1.1-0.1,1.7-0.2c1.4-0.4,2.6-1.4,3.3-2.6c0.1-0.1,0.1-0.2,0.2-0.3
			C637.3,277.2,637.5,275.6,637.1,274.1z"/>
		<path fill="#320000" d="M601.2,226.1c-2.6-1.9-6.2-1.3-8.1,1.3c-1.9,2.6-1.3,6.2,1.3,8.1c0.1,0.1,2.7,2,6.4,5.4
			c1.3-3.8,2.6-7.8,3.7-12.1C602.7,227.2,601.5,226.3,601.2,226.1z"/>
		<path fill="#320000" d="M134.3,283.4c-3.4-4.6-6.1-9.6-8.6-14.8c-2.9-6-6.7-11.9-7.5-18.7c-0.8-6.9-11.8-4.3-11.1,2.6
			c0.8,7,4.4,12.9,7.5,19.2c3.2,6.7,6.5,13,11.3,18.7C130.3,295.7,138.5,289.1,134.3,283.4z"/>
		<path fill="#320000" d="M135.1,301c0,3.1,3.3,5.1,6.1,4.8c3.1-0.3,5.2-2.9,5.2-6c0-0.2,0-0.4,0-0.6c0-6.9-11.3-6.4-11.3,0.4
			C135.1,300.1,135.1,300.5,135.1,301z"/>
		<path fill="#320000" d="M579.9,172.6c-0.1,10.8-0.9,21.5-2.8,32.2c-1.2,6.9,9.9,8.8,11.1,2.1c2.4-14.4,3.1-28.8,3.1-43.4
			c0-9.7,0.4-18.9-3.4-27.9c-2.6-6.2-13.1-3-10.4,3.6C581.6,149.4,580.1,161.8,579.9,172.6z"/>
		<path fill="#320000" d="M576.9,231.2c4.8,4.9,12.7-3.2,7.6-8.2c-0.1-0.1-0.2-0.2-0.3-0.3c-4.9-4.8-13,2.8-7.9,7.9
			C576.5,230.7,576.7,231,576.9,231.2z"/>
		<path fill="#320000" d="M428.7,363.6c-45.6,5.4-93.6,12.3-139.6,7.8c-7.2-0.7-6.4,9.8,0.4,10.5c46,4.5,94.7-1.6,140.3-7.7
			C436.9,373.2,435.9,362.8,428.7,363.6z"/>
		<path fill="#320000" d="M453.2,358.7c-7.2,0-7.1,10.8,0.3,10.8C460.7,369.5,460.5,358.7,453.2,358.7z"/>
	</g>
	<g>
		<path fill="#872032" d="M1243.8,1128.7c-0.2,0-0.5,0-0.8,0c-2.1,0-4.5-0.6-7.3-1.5c3.4,17.5,6.7,54.5-16.3,82.6
			c23.9,14.4,39.7,29.6,44.5,39.9c9,19.7,10.6,39.4,10.8,48.8c13.5-1.5,23.7-7.3,31.1-17.7c12.4-17.4,16.1-46.5,9.9-77.8
			c-6.4-31.9-22.1-63-45.4-90.8C1265.7,1118.7,1256.9,1127.8,1243.8,1128.7z"/>
		<path fill="#872032" d="M904.7,1212.8c-6.1-6.3-15.4-18.8-20.7-40.6c-4.4-18.2-1.4-34.4,2.4-45.7c-5.3,2.2-10.6,2.7-15.6,1.5
			c-8-2-13.5-8.1-16.8-13c-48.2,57.7-74.5,129-40.5,168c6.6,7.5,16.8,11.8,29.7,12.6c0.7-9.9,3.8-32.2,16.7-49.2
			C866.8,1237.3,882.3,1224.9,904.7,1212.8z"/>
		<path fill="#53141D" d="M1156,1129.2c-12.4-17.5-34.6-18.8-56.8-17.6c-9.8,0.5-16.9,3.7-19.4,8.8c-1.6,3.1-1.2,6.8,1.1,10.2
			c9.7,14.6,8.3,28.1-3.9,38c-0.7,0.6-1.5,1.1-2.2,1.6c33.3,0.1,64,6,90.5,14.9C1167.4,1174.1,1167,1144.8,1156,1129.2z"/>
		<path fill="#FFFDE3" d="M873.2,1118.5c5,1.3,10.7-0.7,17-5.7c1.5-1.2,3.2-2.5,4.9-3.8c0,0,0,0,0,0c31.2-23.3,98.6-57.3,177.8-53.8
			c57,2.5,106.8,30.6,139.8,49.2c13.5,7.6,26.2,14.7,30.5,14.5c10.3-0.6,17.4-9.5,20.4-14.2c-17-18.7-37.4-35.7-60.8-50.3
			c-43.6-27.1-90.5-40.9-139.4-40.9c-64.6,0-129,24.6-176.7,67.4c-9.1,8.2-17.9,17-26.1,26.3
			C862.7,1110.7,866.9,1116.9,873.2,1118.5z M1066.4,1023.2c5.6,0,6.9,9,0.9,9C1061.7,1032.1,1060.4,1023.2,1066.4,1023.2z
			 M932.3,1052.2c38.4-18,73.3-26.4,115.6-30.5c5.8-0.6,7.9,8.3,1.7,8.8c-41.4,3.7-76,12.5-113.8,30.1
			C930.5,1063,926.8,1054.7,932.3,1052.2z"/>
		<path fill="#53141D" d="M1036,1155.5c-2.3-8.8,0.3-17.7,2.6-25.5c1.7-5.7,3.5-11.6,1.6-13.5c-6.4-6.3-23.5-8.5-35.5-6.6
			c-0.5,0.1-52,8.6-52,46.3c0,24.6,5.5,31.3,7.4,32.9c25.8-8.5,55.4-15.1,87.9-17.8C1042.1,1168,1037.8,1162.5,1036,1155.5z"/>
		<path fill="#FFFDE3" d="M1058.3,1180.4c-36.9,2.1-69.2,9.2-96.3,18.2c-0.5,0.2-1,0.4-1.5,0.5c-16.9,5.7-31.8,12.2-44.4,18.7
			c-0.4,0.2-0.7,0.4-1.1,0.6c-25.4,13.2-41.6,26.5-47.2,33.8c-11,14.4-13.9,34-14.7,43.2c26.4-1.8,59.5-15.5,94-39.1
			c35.1-24.1,75.9-29.1,104-29.1c41.2,0,82.4,10.9,110.4,29.1c29.2,19,70.5,41.5,103.5,42.6c-0.2-8.5-1.6-27-9.9-45
			C1244,1229.8,1161.5,1174.5,1058.3,1180.4z M1004.2,1227.9c-21.6,4.2-40.4,13.2-58.7,25.3c-17.6,11.7-36.7,19.6-55.4,29.3
			c-4.4,2.3-9.5-5.3-4.8-7.8c22.5-11.8,44.2-24.9,66.5-36.8c16.5-8.8,33-15.5,51.4-19C1009.1,1217.9,1010.2,1226.7,1004.2,1227.9z
			 M1019.5,1225.5c-6.1,0-6.5-9-0.3-9C1025.2,1216.5,1025.6,1225.5,1019.5,1225.5z"/>
		<path fill="#6C1224" d="M893.6,1169.9c5.6,22.8,15.9,34.1,20.3,38.1c10.8-5.4,23-10.6,36.3-15.4c-3.8-5.8-7.3-16.4-7.3-36.3
			c0-36.8,39.4-52.7,60.3-56c14.4-2.3,34.7,0.2,43.9,9.3c6.1,6,3.5,14.8,1,23.4c-2,6.9-4.2,14-2.5,20.1c1.4,5.5,5,9.4,10,11
			c5.2,1.7,10.9,0.6,15.3-3c5.6-4.5,10.8-11.5,1.9-24.9c-4.3-6.4-4.9-13.7-1.7-20.1c2.4-4.9,9.3-13.2,27.7-14.2
			c25-1.3,50.2,0.4,65.3,21.7c12.9,18.2,13.9,50.5,10.6,64.8c13.3,4.9,25.4,10.6,36.2,16.4c25.5-29.5,16.2-73.1,13.7-82.7
			c-4.8-2.5-10.3-5.6-16.7-9.2c-32.2-18.1-80.8-45.5-135.4-48c-75.9-3.3-140.6,29-170.9,51.4C899.3,1120.3,887,1143,893.6,1169.9z
			 M1062,1162.4c-6.2,0-4.6-9,1.4-9C1069.6,1153.4,1068,1162.4,1062,1162.4z M1057.4,1135.1c2.4,1.2,3,3.6,2.1,6
			c-0.4,1.1-1,2.4-1.1,3.5c0,0.7,0.6,1.6,0.7,2.3c0.3,2.3,0,4.6-2.2,5.8c-1.5,0.8-3.3,0.7-4.8-0.1c-2.1-1.2-1.9-2.7-2.4-4.7
			c-0.3-0.9-0.5-1.8-0.7-2.8c-0.4-2.8,1-5.8,2-8.3C1052,1134.6,1055.4,1134.2,1057.4,1135.1z M914,1199.3c-6.2,0-5.1-9,0.9-9
			C921.1,1190.3,920,1199.3,914,1199.3z M897.4,1144c1-5.7,10.5-4.3,9.4,1.5c-2.3,12.8,0.4,24.6,4.8,36.6c2.1,5.6-7.1,7.6-9.2,2.4
			C897.1,1171.5,895,1157.9,897.4,1144z"/>
		<path fill="#320000" d="M1264.9,1303.5c0-0.1,0.1-1.8,0-4.7c-33-1.2-74.3-23.6-103.5-42.6c-28-18.2-69.3-29.1-110.4-29.1
			c-28.1,0-68.9,5.1-104,29.1c-34.5,23.7-67.6,37.4-94,39.1c-0.3,3.1-0.3,5-0.3,5.1c0,2.7-2.2,4.9-4.9,4.9
			c29.2-0.2,66.4-14.7,104.8-41.1c33-22.6,71.7-27.4,98.4-27.4c39.3,0,78.6,10.3,105.1,27.5c31.1,20.2,75.7,44.3,111.5,44.3
			c0.6,0,1.1-0.1,1.7-0.1C1266.7,1308.4,1264.7,1306.2,1264.9,1303.5z"/>
		<path fill="#320000" d="M1274,1101.6c0.7,1.3,0.9,2.9,0.2,4.4c-0.1,0.3-1.4,2.9-3.9,6.3c23.3,27.8,39.1,58.9,45.4,90.8
			c6.2,31.3,2.5,60.4-9.9,77.8c-7.4,10.4-17.7,16.2-31.1,17.7c0.1,3.3,0,5.3-0.1,5.6c-0.1,2.4-1.9,4.1-4.2,4.5
			c18.8-0.7,33.4-8.1,43.4-22.1c14-19.6,18.3-51.5,11.5-85.4C1318.4,1165.9,1300.5,1131.7,1274,1101.6z"/>
		<path fill="#320000" d="M859.3,1104.5c0,0.1,0.5,1.2,1.4,2.7c8.2-9.2,16.9-18.1,26.1-26.3c47.7-42.8,112.1-67.4,176.7-67.4
			c48.9,0,95.8,13.8,139.4,40.9c23.4,14.5,43.8,31.6,60.8,50.3c1.1-1.7,1.7-2.9,1.7-2.9c1.2-2.4,4.1-3.5,6.6-2.3
			c0.3,0.1,0.5,0.4,0.7,0.5c-17.9-20.1-39.7-38.4-64.6-54c-45.2-28.1-93.8-42.4-144.6-42.4c-67,0-133.8,25.5-183.3,69.9
			c-10.1,9-19.6,18.8-28.6,29.1c0.4-0.3,0.8-0.7,1.3-0.9C855.4,1100.8,858.3,1102,859.3,1104.5z"/>
		<path fill="#320000" d="M842.9,1300.5c0-0.3,0-2.2,0.2-5.1c-12.9-0.8-23.2-5-29.7-12.6c-34-39-7.6-110.3,40.5-168
			c-2.4-3.5-3.6-6.5-3.7-6.7c-0.7-1.7-0.3-3.4,0.7-4.7c-53.6,61.9-83.4,141.8-44.9,185.9c9.2,10.5,23.5,16.1,41.3,16.1c0,0,0,0,0,0
			c0.2,0,0.3,0,0.5,0C845.1,1305.4,842.9,1303.2,842.9,1300.5z"/>
		<path fill="#320000" d="M850.9,1103.4c0.2-0.3,0.4-0.5,0.7-0.8C851.3,1102.9,851.1,1103.2,850.9,1103.4z"/>
		<path fill="#320000" d="M870.7,1128c5.1,1.3,10.3,0.8,15.6-1.5c3.2-9.6,7.1-15.7,7.4-16.2c0.4-0.6,0.8-1,1.4-1.4
			c-1.7,1.3-3.4,2.6-4.9,3.8c-6.3,5.1-12,7-17,5.7c-6.3-1.6-10.5-7.7-12.5-11.3c-2.3,2.6-4.5,5.2-6.7,7.8
			C857.3,1119.8,862.8,1125.9,870.7,1128z"/>
		<path fill="#320000" d="M1272.6,1100c0.5,0.5,0.9,1.1,1.4,1.6C1273.7,1100.9,1273.2,1100.4,1272.6,1100z"/>
		<path fill="#320000" d="M1243.2,1118.8c-4.3,0.2-17-6.9-30.5-14.5c-33-18.6-82.8-46.7-139.8-49.2c-79.1-3.5-146.6,30.5-177.8,53.8
			c1.6-1.1,3.7-1.2,5.4-0.1c2.3,1.5,2.9,4.5,1.5,6.8c0,0-0.2,0.3-0.4,0.7c30.3-22.4,95-54.7,170.9-51.4
			c54.6,2.4,103.2,29.8,135.4,48c6.4,3.6,11.9,6.7,16.7,9.2c-0.3-1.2-0.5-1.9-0.5-1.9c-0.8-2.6,0.6-5.3,3.2-6.1
			c2.6-0.8,5.3,0.6,6.1,3.2c0.2,0.6,1.3,4.2,2.4,9.9c2.8,1,5.2,1.5,7.3,1.5c0.3,0,0.5,0,0.8,0c13.1-0.8,21.9-10,26.5-16.4
			c-2.2-2.6-4.4-5.1-6.7-7.6C1260.6,1109.3,1253.6,1118.2,1243.2,1118.8z"/>
		<path fill="#320000" d="M850.2,1108.2c0.1,0.3,1.3,3.2,3.7,6.7c2.2-2.6,4.4-5.2,6.7-7.8c-0.8-1.5-1.3-2.6-1.4-2.7
			c-1-2.5-3.9-3.7-6.4-2.7c-0.5,0.2-0.9,0.5-1.3,0.9c-0.2,0.3-0.5,0.5-0.7,0.8C849.9,1104.8,849.6,1106.5,850.2,1108.2z"/>
		<path fill="#320000" d="M1265.4,1101.7c0,0-0.6,1.2-1.7,2.9c2.3,2.5,4.5,5,6.7,7.6c2.4-3.3,3.7-6,3.9-6.3c0.7-1.5,0.5-3.1-0.2-4.4
			c-0.5-0.5-0.9-1.1-1.4-1.6c-0.2-0.2-0.4-0.4-0.7-0.5C1269.5,1098.2,1266.5,1099.3,1265.4,1101.7z"/>
		<rect x="847.8" y="1305.4" fill="#320000" width="0" height="0"/>
		<path fill="#320000" d="M959.1,1199.2c-1.3-0.2-5.3-1.1-9-6.7c-13.3,4.8-25.5,10-36.3,15.4c1.3,1.1,2.1,1.7,2.1,1.7
			c2.2,1.5,2.9,4.5,1.4,6.8c-0.4,0.5-0.8,1-1.3,1.3c12.6-6.5,27.5-13,44.4-18.7c-0.3,0-0.5,0.1-0.8,0.1
			C959.5,1199.3,959.3,1199.3,959.1,1199.2z"/>
		<path fill="#320000" d="M914.9,1218.4c-0.5,0.2-1.1,0.3-1.7,0.3c-0.9,0-1.8-0.3-2.7-0.8c-0.3-0.2-2.6-1.8-5.9-5.2
			c-22.4,12.2-37.9,24.5-44.8,33.5c-13,17-16,39.3-16.7,49.2c1.4,0.1,2.8,0.2,4.2,0.2c0,0,0,0,0,0c1.9,0,3.8-0.1,5.7-0.2
			c0.8-9.2,3.7-28.8,14.7-43.2C873.3,1244.9,889.5,1231.6,914.9,1218.4z"/>
		<path fill="#320000" d="M1269.5,1308.7c0.1,0,0.2,0,0.3,0c0.3,0,0.5-0.1,0.7-0.1c-0.4,0-0.8,0.1-1.3,0.1
			C1269.3,1308.7,1269.4,1308.7,1269.5,1308.7z"/>
		<path fill="#320000" d="M1219.5,1209.7c-1.3,1.5-2.6,3.1-4,4.6c-1,1-2.2,1.5-3.5,1.5c-1.2,0-2.5-0.5-3.4-1.4c-2-1.9-2-5-0.1-7
			c0.9-0.9,1.7-1.8,2.4-2.7c-10.8-5.9-22.9-11.5-36.2-16.4c-0.5,2.4-1.2,4.3-1.9,5.5c-1.4,2.3-4.4,3.1-6.7,1.7
			c-2.3-1.4-3.1-4.4-1.7-6.7c0.4-0.7,0.8-2,1.1-3.7c-26.6-8.8-57.2-14.8-90.5-14.9c-6.7,4.4-14.8,5.6-22.4,3.1
			c-1.6-0.5-3.1-1.2-4.5-2c-32.5,2.7-62.2,9.3-87.9,17.8c0.3,0.3,0.5,0.4,0.6,0.4c2.5,0.5,4.2,2.8,3.9,5.4c-0.2,1.7-1.2,3-2.6,3.7
			c27.1-9,59.5-16.1,96.3-18.2c103.2-5.9,185.8,49.4,196.8,73.3c8.3,18.1,9.7,36.6,9.9,45c0.9,0,1.8,0.1,2.7,0.1
			c2.5,0,4.9-0.2,7.2-0.4c-0.2-9.4-1.7-29.1-10.8-48.8C1259.2,1239.3,1243.4,1224.1,1219.5,1209.7z"/>
		<path fill="#320000" d="M1274.7,1304.1c0-0.3,0.1-2.3,0.1-5.6c-2.3,0.3-4.7,0.4-7.2,0.4c-0.9,0-1.8-0.1-2.7-0.1
			c0.1,2.9,0,4.7,0,4.7c-0.2,2.6,1.8,4.8,4.4,5.1c0.4,0,0.8,0,1.3-0.1C1272.7,1308.3,1274.6,1306.5,1274.7,1304.1z"/>
		<path fill="#320000" d="M852.8,1300.5c0-0.1,0-2,0.3-5.1c-1.9,0.1-3.8,0.2-5.7,0.2c0,0,0,0,0,0c-1.4,0-2.8-0.1-4.2-0.2
			c-0.2,2.9-0.2,4.8-0.2,5.1c0,2.7,2.2,4.9,4.9,4.9c0,0,0,0,0,0C850.6,1305.4,852.8,1303.2,852.8,1300.5z"/>
		<path fill="#320000" d="M916,1217.8c-0.4,0.2-0.8,0.4-1.1,0.6C915.3,1218.2,915.7,1218,916,1217.8z"/>
		<path fill="#320000" d="M886.4,1126.5c-3.8,11.3-6.8,27.5-2.4,45.7c5.3,21.7,14.6,34.3,20.7,40.6c2.9-1.6,6-3.2,9.2-4.8
			c-4.4-4-14.7-15.3-20.3-38.1c-6.5-26.8,5.7-49.5,8.1-53.5c-1.9,1.4-3.6,2.7-5.2,4C893,1123.1,889.7,1125.1,886.4,1126.5z"/>
		<path fill="#320000" d="M895.1,1108.9C895.1,1108.9,895.1,1108.9,895.1,1108.9C895.1,1108.9,895.1,1108.9,895.1,1108.9z"/>
		<path fill="#320000" d="M893.8,1110.3c-0.3,0.5-4.2,6.6-7.4,16.2c3.3-1.4,6.6-3.4,10-6.2c1.6-1.3,3.4-2.6,5.2-4
			c0.2-0.4,0.4-0.7,0.4-0.7c1.5-2.3,0.8-5.3-1.5-6.8c-1.7-1.1-3.8-1-5.4,0.1c0,0,0,0,0,0C894.6,1109.3,894.1,1109.7,893.8,1110.3z"
			/>
		<path fill="#320000" d="M917.3,1216.5c1.5-2.3,0.9-5.3-1.4-6.8c0,0-0.8-0.6-2.1-1.7c-3.2,1.6-6.2,3.2-9.2,4.8
			c3.3,3.4,5.6,5,5.9,5.2c0.8,0.5,1.7,0.8,2.7,0.8c0.6,0,1.1-0.1,1.7-0.3c0.4-0.2,0.8-0.4,1.1-0.6
			C916.5,1217.5,917,1217,917.3,1216.5z"/>
		<path fill="#320000" d="M1210.8,1204.7c3,1.6,5.9,3.3,8.7,5c23.1-28,19.7-65.1,16.3-82.6c-3.2-1.1-6.9-2.8-11.2-5.1
			C1227,1131.7,1236.3,1175.2,1210.8,1204.7z"/>
		<path fill="#320000" d="M1233.4,1117.2c-0.8-2.6-3.6-4-6.1-3.2c-2.6,0.8-4,3.6-3.2,6.1c0,0.1,0.2,0.8,0.5,1.9
			c4.3,2.3,8,3.9,11.2,5.1C1234.7,1121.4,1233.6,1117.8,1233.4,1117.2z"/>
		<path fill="#320000" d="M1208.4,1207.4c-1.9,2-1.8,5.1,0.1,7c1,0.9,2.2,1.4,3.4,1.4c1.3,0,2.6-0.5,3.5-1.5c1.4-1.5,2.8-3,4-4.6
			c-2.8-1.7-5.7-3.3-8.7-5C1210,1205.7,1209.2,1206.6,1208.4,1207.4z"/>
		<path fill="#320000" d="M1164,1123.5c-15.1-21.4-40.3-23.1-65.3-21.7c-18.4,1-25.2,9.3-27.7,14.2c-3.2,6.3-2.6,13.7,1.7,20.1
			c9,13.4,3.7,20.4-1.9,24.9c-4.4,3.6-10.1,4.7-15.3,3c-5-1.6-8.6-5.5-10-11c-1.6-6.2,0.5-13.3,2.5-20.1c2.5-8.5,5.2-17.3-1-23.4
			c-9.2-9-29.5-11.5-43.9-9.3c-20.8,3.3-60.3,19.2-60.3,56c0,19.9,3.5,30.6,7.3,36.3c3.2-1.2,6.5-2.3,9.9-3.4
			c-1.9-1.6-7.4-8.4-7.4-32.9c0-37.7,51.4-46.2,52-46.3c12-1.9,29.2,0.3,35.5,6.6c1.9,1.9,0.2,7.8-1.6,13.5
			c-2.3,7.8-5,16.6-2.6,25.5c1.8,7,6.1,12.5,12,15.8c3.2-0.3,6.4-0.5,9.7-0.7c5.8-0.3,11.5-0.5,17.1-0.4c0.8-0.5,1.5-1,2.2-1.6
			c12.2-9.9,13.6-23.4,3.9-38c-2.3-3.4-2.7-7.1-1.1-10.2c2.5-5.1,9.6-8.2,19.4-8.8c22.1-1.2,44.4,0.1,56.8,17.6
			c11.1,15.6,11.4,44.9,9.4,55.9c3.1,1,6.2,2.1,9.3,3.2C1177.8,1174,1176.9,1141.7,1164,1123.5z"/>
		<path fill="#320000" d="M961.9,1198.6c-0.5,0.2-1,0.3-1.5,0.5C961,1199,961.5,1198.9,961.9,1198.6z"/>
		<path fill="#320000" d="M1164.3,1188.8c-1.4,2.3-0.6,5.3,1.7,6.7c2.3,1.4,5.4,0.6,6.7-1.7c0.7-1.2,1.4-3.1,1.9-5.5
			c-3-1.1-6.1-2.2-9.3-3.2C1165,1186.8,1164.7,1188.1,1164.3,1188.8z"/>
		<path fill="#320000" d="M959.1,1199.2c0.2,0,0.4,0,0.6,0c0.3,0,0.5-0.1,0.8-0.1c0.5-0.2,1-0.3,1.5-0.5c1.4-0.7,2.4-2,2.6-3.7
			c0.3-2.5-1.4-4.9-3.9-5.4c-0.1,0-0.3-0.2-0.6-0.4c-3.4,1.1-6.7,2.3-9.9,3.4C953.8,1198.1,957.7,1199.1,959.1,1199.2z"/>
		<path fill="#320000" d="M1048,1171.3c1.4,0.8,2.9,1.5,4.5,2c7.5,2.5,15.7,1.3,22.4-3.1c-5.6,0-11.3,0.1-17.1,0.4
			C1054.4,1170.8,1051.2,1171,1048,1171.3z"/>
		<path fill="#320000" d="M935.8,1060.5c37.9-17.6,72.4-26.4,113.8-30.1c6.1-0.5,4-9.4-1.7-8.8c-42.3,4.1-77.2,12.6-115.6,30.5
			C926.8,1054.7,930.5,1063,935.8,1060.5z"/>
		<path fill="#320000" d="M1067.2,1032.1c6,0,4.7-9-0.9-9C1060.4,1023.2,1061.7,1032.1,1067.2,1032.1z"/>
		<path fill="#320000" d="M1049.1,1145.3c0.1,0.9,0.4,1.8,0.7,2.8c0.6,2,0.3,3.5,2.4,4.7c1.5,0.8,3.3,0.9,4.8,0.1
			c2.2-1.2,2.5-3.5,2.2-5.8c-0.1-0.7-0.7-1.6-0.7-2.3c0-1.2,0.6-2.5,1.1-3.5c0.9-2.4,0.3-4.8-2.1-6c-2-1-5.4-0.5-6.4,1.8
			C1050.1,1139.5,1048.7,1142.5,1049.1,1145.3z"/>
		<path fill="#320000" d="M1062,1162.4c5.9,0,7.6-9,1.4-9C1057.5,1153.4,1055.8,1162.4,1062,1162.4z"/>
		<path fill="#320000" d="M911.7,1182.1c-4.4-12-7.1-23.7-4.8-36.6c1-5.9-8.4-7.2-9.4-1.5c-2.4,13.9-0.3,27.5,5,40.5
			C904.6,1189.7,913.7,1187.8,911.7,1182.1z"/>
		<path fill="#320000" d="M914,1199.3c6,0,7.1-9,0.9-9C908.9,1190.3,907.7,1199.3,914,1199.3z"/>
		<path fill="#320000" d="M1003.2,1219c-18.5,3.5-34.9,10.2-51.4,19c-22.3,11.9-44,25-66.5,36.8c-4.7,2.5,0.4,10,4.8,7.8
			c18.7-9.7,37.8-17.7,55.4-29.3c18.3-12.1,37.1-21.1,58.7-25.3C1010.2,1226.7,1009.1,1217.9,1003.2,1219z"/>
		<path fill="#320000" d="M1019.1,1216.5c-6.1,0-5.8,9,0.3,9C1025.6,1225.5,1025.2,1216.5,1019.1,1216.5z"/>
	</g>
	<g>
		<path fill="#872032" d="M356.8,1231c-10.8,0-21.5-0.2-31.9-0.7c10,1.5,16.6,3.2,21.6,4.6c6.6,1.7,9.3,2.4,14.5,1.4
			c1.4-0.3,144.4-26.4,197.1,8.6c49.6-29.1,84-64.1,98.8-92.8c4.1-8,6.4-15.3,6.9-21.3C612,1203.4,476.3,1231,356.8,1231z"/>
		<path fill="#F04E3C" d="M363.4,1247.6c-7.8,1.6-12.6,0.4-19.8-1.5c-8.6-2.3-21.6-5.7-51-7.2c-65-4.2-108.5,7.7-126.8,14.2
			c44.6,28.2,103.4,49.7,176.5,49.7c4.2,0,8.4-0.1,12.6-0.2c75.3-2.6,140.5-23.5,191.5-51.2C499.2,1226.7,385.3,1243,363.4,1247.6z
			 M418.7,1259.6c-18-2.6-38.4-1.5-55.7,4.6c-3.5,1.2-10.8,5.4-15.1,4c-10.7-3.6-19.2-10.9-31.3-12c-20.4-1.9-40.8-1.6-60.7,3.5
			c-5.9,1.5-9.3-8.4-3.1-10c25.9-6.7,72-12.5,94.6,5.1c6.3,4.9,31.7-5,39.2-5.9c12.5-1.5,22.4-2,34.7,0.5
			C428.4,1250.7,425.6,1260.6,418.7,1259.6z M441.2,1259.8c-7.3,0-7.3-10.8-0.1-10.8C448.4,1249.1,448.4,1259.8,441.2,1259.8z"/>
		<path fill="#FFFDE3" d="M209.1,1202.4c121.6,34.2,386.5,21.1,450.2-86.2c-2.2-2-4.8-3-8.2-3c-9.5,0-24.4,6.9-43.2,15.7
			c-44.3,20.7-111.3,52-217.4,52c-13.5,0-27.5-0.5-41.5-1.6c-143.7-9.2-216.6-37.6-255.8-52.9c-13.2-5.2-22.7-8.9-28-8.9
			c-0.3,0-0.5,0-0.8,0.1C72,1130.6,103.9,1172.9,209.1,1202.4z M305.2,1202.9c7.2,0,7,10.5-0.2,10.5
			C297.8,1213.4,298,1202.9,305.2,1202.9z M186.8,1174.6c27.7,16.8,67.6,24.2,99.9,25.5c6.2,0.2,6.1,10.5-0.2,10.4
			c-33.3-0.7-75.2-9.2-104.3-26.7C176.2,1180.2,180.7,1170.9,186.8,1174.6z"/>
		<path fill="#872032" d="M275.3,1226.5c-26.1-3-49.7-7.4-69.4-12.9c-89.3-25.1-128.1-59.1-144.1-79.2c1.4,5.5,3.9,12.1,7.8,19.7
			c12.9,25,41,60.8,84.3,91C165.2,1240.3,207,1224.9,275.3,1226.5z"/>
		<path fill="#320000" d="M670.9,1112.2c1.4,1.8,1.7,4.2,0.5,6.3c-2.3,4.2-4.9,8.2-7.7,12.2c-0.5,6-2.8,13.3-6.9,21.3
			c-14.8,28.8-49.2,63.8-98.8,92.8c1.1,0.7,2.2,1.5,3.3,2.2c2.5,2,3,5.6,1.1,8.1c-0.3,0.4-0.7,0.7-1.1,1
			c53.1-30.7,90.1-68.2,105.9-98.9c9.6-18.8,11-34.2,4.1-44.7C671.1,1112.5,671,1112.3,670.9,1112.2z"/>
		<path fill="#320000" d="M554.2,1256.2c-2.3-1.8-4.9-3.4-7.8-4.9c-51,27.6-116.2,48.6-191.5,51.2c-4.3,0.1-8.5,0.2-12.6,0.2
			c-73.1,0-131.9-21.6-176.5-49.7c-6.2,2.2-9.5,3.8-9.7,3.9c-0.8,0.4-1.7,0.6-2.6,0.6c-2.1,0-4.2-1.2-5.2-3.2
			c-1.4-2.9-0.2-6.3,2.6-7.8c0.3-0.1,1.3-0.6,3-1.3c-43.3-30.2-71.5-66-84.3-91c-4-7.7-6.4-14.3-7.8-19.7
			c-7.6-9.5-10.1-15.9-10.3-16.6c-0.8-2.2-0.2-4.5,1.4-6.1c-0.2,0.3-0.5,0.5-0.7,0.7c-8.6,12.1,0.8,34.6,7.2,47
			c27.6,53.6,122.2,154.9,282.9,154.9c4.3,0,8.7-0.1,13-0.2c81-2.8,150.9-26.5,204.6-57.2C558.1,1257.7,555.9,1257.5,554.2,1256.2z"
			/>
		<path fill="#320000" d="M62.4,1113.8c0,0.1,0.6,1.5,2,3.9c0.2,0,0.5-0.1,0.8-0.1c5.2,0,14.8,3.7,28,8.9
			c39.2,15.3,112.1,43.8,255.8,52.9c14,1,27.9,1.6,41.5,1.6c106.1,0,173.1-31.3,217.4-52c18.8-8.8,33.7-15.7,43.2-15.7
			c3.4,0,6,0.9,8.2,3c0.7-1.1,1.4-2.1,2-3.3c1.5-2.8,5-3.8,7.9-2.3c0.7,0.4,1.3,0.9,1.7,1.5c-4.8-6.9-11.4-10.4-19.8-10.4
			c-12.1,0-27.2,7.1-48.1,16.8c-43.4,20.3-109,50.9-212.5,50.9c-13.2,0-26.9-0.5-40.7-1.5c-142-9-213.8-37.1-252.4-52.2
			c-15.4-6-24.8-9.7-32.2-9.7c-5.1,0-9.1,1.9-12.1,5.5c0.5-0.5,1.2-0.9,1.9-1.2C58,1109.3,61.3,1110.8,62.4,1113.8z"/>
		<path fill="#320000" d="M670.9,1112.2C670.9,1112.2,670.9,1112.2,670.9,1112.2C670.9,1112.2,670.9,1112.2,670.9,1112.2z"/>
		<path fill="#320000" d="M661.5,1119c-0.7-1.1-1.5-2-2.3-2.7c-63.7,107.2-328.5,120.3-450.2,86.2
			c-105.2-29.6-137.1-71.8-144.7-84.8c-1.6,0.1-2.2,0.7-2.7,1.5c-1.6,2.3-1.8,7.6,0.2,15.3c16,20.1,54.8,54.1,144.1,79.2
			c19.7,5.5,43.3,9.9,69.4,12.9c5.8,0.1,11.8,0.4,18,0.8c13.5,0.7,23.6,1.8,31.6,3c10.5,0.4,21.1,0.7,31.9,0.7
			c119.5,0,255.2-27.5,306.9-100.3C664.2,1125.9,663.5,1121.9,661.5,1119z"/>
		<path fill="#320000" d="M52.9,1111.7c0.1-0.1,0.1-0.1,0.2-0.2C53,1111.6,53,1111.6,52.9,1111.7z"/>
		<path fill="#320000" d="M661.3,1113c-0.6,1.1-1.4,2.2-2,3.3c0.8,0.8,1.6,1.6,2.3,2.7c1.9,2.9,2.6,6.9,2.2,11.7
			c2.8-3.9,5.4-8,7.7-12.2c1.1-2.1,0.9-4.6-0.5-6.3c0,0,0,0,0-0.1c-0.5-0.6-1-1.1-1.7-1.5C666.3,1109.2,662.8,1110.2,661.3,1113z"/>
		<path fill="#320000" d="M51.5,1117.8c0.3,0.8,2.8,7.1,10.3,16.6c-2-7.7-1.8-13-0.2-15.3c0.5-0.7,1.2-1.3,2.7-1.5
			c-1.4-2.4-2-3.8-2-3.9c-1.1-3-4.4-4.5-7.4-3.4c-0.7,0.3-1.4,0.7-1.9,1.2c-0.1,0.1-0.1,0.1-0.2,0.2
			C51.4,1113.2,50.7,1115.6,51.5,1117.8z"/>
		<path fill="#320000" d="M361,1236.2c-5.2,1.1-7.9,0.4-14.5-1.4c-5.1-1.3-11.6-3-21.6-4.6c-17.2-0.7-33.8-2-49.6-3.8
			c-68.4-1.6-110.1,13.9-121.3,18.6c3.8,2.7,7.7,5.3,11.8,7.9c18.2-6.5,61.8-18.4,126.8-14.2c29.4,1.6,42.4,5,51,7.2
			c7.2,1.9,12,3.1,19.8,1.5c21.9-4.6,135.9-20.9,183.1,3.8c4-2.1,7.8-4.3,11.6-6.5C505.4,1209.9,362.4,1235.9,361,1236.2z"/>
		<path fill="#320000" d="M561.3,1256.1c-0.4,0.3-0.9,0.5-1.3,0.8C560.4,1256.7,560.8,1256.5,561.3,1256.1z"/>
		<path fill="#320000" d="M561.3,1247.1c-1-0.8-2.2-1.5-3.3-2.2c-3.8,2.2-7.6,4.4-11.6,6.5c2.8,1.5,5.5,3.1,7.8,4.9
			c1.7,1.3,3.8,1.4,5.7,0.7c0.4-0.3,0.9-0.5,1.3-0.8c0.4-0.3,0.8-0.6,1.1-1C564.3,1252.6,563.8,1249,561.3,1247.1z"/>
		<path fill="#320000" d="M151.1,1246.5c-2.9,1.4-4,4.9-2.6,7.8c1,2,3.1,3.2,5.2,3.2c0.9,0,1.7-0.2,2.6-0.6c0.1-0.1,3.4-1.6,9.7-3.9
			c-4.1-2.6-8-5.2-11.8-7.9C152.3,1245.8,151.3,1246.3,151.1,1246.5z"/>
		<path fill="#320000" d="M293.3,1227.3c-6.2-0.4-12.1-0.6-18-0.8c15.7,1.8,32.4,3.1,49.6,3.8C316.9,1229.1,306.8,1228,293.3,1227.3
			z"/>
		<path fill="#320000" d="M182.2,1183.8c29,17.5,71,26,104.3,26.7c6.3,0.1,6.4-10.1,0.2-10.4c-32.3-1.3-72.1-8.7-99.9-25.5
			C180.7,1170.9,176.2,1180.2,182.2,1183.8z"/>
		<path fill="#320000" d="M305,1213.4c7.2,0,7.4-10.5,0.2-10.5C298,1202.9,297.8,1213.4,305,1213.4z"/>
		<path fill="#320000" d="M421.2,1249.3c-12.3-2.5-22.2-2-34.7-0.5c-7.5,0.9-32.9,10.8-39.2,5.9c-22.6-17.6-68.7-11.8-94.6-5.1
			c-6.2,1.6-2.8,11.5,3.1,10c19.9-5,40.4-5.4,60.7-3.5c12.1,1.1,20.7,8.4,31.3,12c4.3,1.4,11.6-2.7,15.1-4c17.3-6,37.7-7.1,55.7-4.6
			C425.6,1260.6,428.4,1250.7,421.2,1249.3z"/>
		<path fill="#320000" d="M441.1,1249.1c-7.2,0-7.2,10.8,0.1,10.8C448.4,1259.8,448.4,1249.1,441.1,1249.1z"/>
	</g>
	<g>
		<path fill="#F04E3C" d="M384.9,818.9c-6.8,1.7-12.7,3.1-18.2,3.3c-6.9,0.3-12.8-1.5-19.7-3.6c-13.6-4.1-32.3-9.6-73.4-3.4
			c-53.1,8-115.1,56.3-129.3,67.9c2.2,4.5,4.6,8.9,7,13.1c11.4-10,39.7-33.9,53.9-35c6.7-0.4,13.1,5.1,22.8,13.7
			c21.6,19,57.8,50.8,131,51.7c77.9,0.9,122.9-36.3,144.6-54.2c8.7-7.2,13.6-11.2,18.1-11.2c0,0,0,0,0,0c10.7,0,38.5,20.1,52,30.2
			c1.7-2.8,3.2-5.6,4.7-8.5c-12.9-10.5-62.4-49.1-110.3-62.8C427.6,808.5,402.9,814.5,384.9,818.9z M305.4,840.4
			c-6,3.9-11.7,8.2-17.1,12.8c-4.5,3.8-10.7-3.3-6-7.3c5.3-4.4,10.7-8.5,16.4-12.3c2.2-1.5,4.9-1.6,6.8,0.4
			C307.1,835.6,307.5,839,305.4,840.4z M384.3,843.6c-17.6,12.7-34.9,25.7-52.2,38.7c-4.7,3.5-11.5-3.2-6.4-6.9
			c17.2-12.9,34.3-25.9,51.7-38.4C381.9,833.8,389.2,840.1,384.3,843.6z M449.7,858.4c-9.5,7.1-19.1,14.1-28.7,21.1
			c-5,3.7-10.2-4.1-5.1-7.8c9.5-6.9,18.9-13.9,28.3-20.8C449.2,847.2,454.8,854.6,449.7,858.4z"/>
		<path fill="#872032" d="M203.2,722.5c6.8-32.1,36.4-106.9,163.9-107.7c103.8-0.6,145.5,63.4,153.9,101.4
			c7.1,32.1-7.4,86.3-17.5,106.7c36.1,16.9,67.6,41.1,79.7,50.9c15.1-31.6,24-69.8,22.4-116.1c-2.1-65-20.2-114.6-47.3-151.5
			c-7.5,12.9-24.1,36.7-44,36.7c-0.5,0-1,0-1.6,0c-8.9-0.6-16.3-5.6-25.6-12c-19.3-13.1-48.5-33-119.5-33.9
			c-71.6-0.8-113.5,22.2-138.4,35.9c-12.6,6.9-20.2,11.1-26.8,9.7c-13.5-2.9-29.9-25.6-37.4-37c-35.2,46.1-50.5,107.1-45.4,181.8
			c2.3,33.2,9.5,61.9,20.3,86.5c11.3-9.2,40-31.1,73.3-48C207.9,811.8,193.5,768.3,203.2,722.5z M137.2,801.3c-6.3,0-5-9,1.1-9
			C144.6,792.3,143.3,801.3,137.2,801.3z M148.3,679.9c-10.2,32.9-10.4,63.6-7.3,97.6c0.5,5.9-9.2,5.8-9.8,0
			c-3.5-34.8-2.6-66.7,7.8-100.2C140.7,671.6,150.1,674,148.3,679.9z"/>
		<path fill="#6C1224" d="M511.2,718.3c-7.7-34.8-46.5-93.5-142.6-93.5c-0.5,0-1,0-1.5,0c-120.2,0.7-147.8,70-154.1,99.7
			c-8.9,41.9,4.1,83,9.2,96.8c12.8-5.9,26-10.9,39.1-14c-8.8-9-21-27.3-21.9-60.5c-1.3-49.3,47.3-77.9,80.5-81.8
			c14.7-1.7,25.5,1.1,31.8,8.4c5.6,6.4,7.1,15.4,4.4,26.1c-0.9,3.7-2.1,7.4-3.4,11.4c-4.7,14.4-9.5,29.2,0.2,43.7
			c6,9,14.4,6.8,17.7,5.4c8.4-3.5,15.5-13.8,12.8-26.8c-1.9-9.3-4.3-17.2-6.4-24.2c-4.4-14.4-7.5-24.8-1.6-33.3
			c3.9-5.6,12-9.3,21.7-9.9c11.2-0.8,33.9,2.1,59.1,29.7c32.9,35.9,24.4,88.7,7.8,113c2.3,0.6,4.5,1.2,6.9,1.8
			c7.8,2.2,15.7,5.1,23.4,8.3C503.6,801,517.9,748.2,511.2,718.3z M352.8,742.1c-3.6-7-1.9-14.7-0.3-22c1.2-5.8,11-4.9,9.7,0.8
			c-1.4,6.2-3,12.2-0.3,18.2C364.4,744.8,355.4,747.2,352.8,742.1z M363.9,756.9c-5.8,0-7.7-9-1.4-9
			C368.3,747.8,370.2,756.9,363.9,756.9z"/>
		<path fill="#FFFDE3" d="M204.4,632.7c2.9,0.6,11.2-3.9,19.8-8.7c25.9-14.2,69.1-38,143.4-37.1c74,0.9,104.7,21.8,125,35.6
			c8.4,5.7,14.5,9.9,20.6,10.3c15.4,0.9,31.4-22.6,38.3-35.3C504.1,539.4,432.9,516,368.9,516c-1.5,0-3,0-4.5,0
			c-77.9,1.5-144.6,28.3-187.8,75.3c-1.7,1.9-3.4,3.9-5,5.8C180.3,611.1,195.4,630.7,204.4,632.7z M374.6,529.8
			c6.4,0,5.2,9.3-0.9,9.3C367.3,539.1,368.4,529.8,374.6,529.8z M243.8,556.3c35-18.2,72-25.7,111.2-27.2c6.1-0.2,5.8,8.8-0.3,9.1
			c-37.8,1.7-73,8.9-106.7,26.5C242.8,567.3,238.3,559.1,243.8,556.3z"/>
		<path fill="#53141D" d="M449,702.4c-23.2-25.3-43.4-26.9-51-26.4c-7.3,0.5-12.4,3.2-14.1,5.6c-3.1,4.5-0.6,12.9,3,24.6
			c2.2,7.2,4.6,15.4,6.6,25.1c3.7,18.3-6.6,33-18.8,38.1c-11.3,4.7-23.1,1.1-29.9-9.1c-12.4-18.6-6.3-37.3-1.4-52.4
			c1.2-3.8,2.4-7.3,3.2-10.7c1.3-5.2,2-12.3-2.2-17.1c-4-4.6-12-6.3-23.1-5c-22.9,2.7-72.8,24.4-71.6,71.6
			c1,39.6,19.4,54.9,24.4,58.4c42-6.1,61.6-0.3,75.9,3.9c6.3,1.9,11.2,3.2,16.5,3.2c4.5-0.2,9.9-1.5,16.2-3
			c15.4-3.8,37.5-9.1,70.7-2.9C469.3,787.6,479.7,735.9,449,702.4z M270.9,773c-4.9-8.9-10.5-18.5-9.8-29.1
			c0.6-9.3,3.3-17.6,6.8-26.3c2.2-5.5,11.8-3.5,9.5,2.3c-3.4,8.3-7.6,17.8-6.4,27c1,8,4.6,14.7,8.4,21.6
			C282.4,774,273.8,778.2,270.9,773z M282.2,789.6c-6.1,0-6.9-9.1-0.6-9.1C287.7,780.5,288.5,789.6,282.2,789.6z"/>
		<path fill="#FFFDE3" d="M510.1,880.1c-22.3,18.4-68.4,56.5-148.1,56.5c-1,0-2,0-3,0c-77-0.9-116.4-35.6-137.6-54.2
			c-6.1-5.3-13-11.6-15.3-11.2c-9.5,0.8-34,19.9-49.3,33.6c53.2,81.2,150,105.9,207.7,105.9c0,0,0,0,0,0c2.8,0,5.4-0.1,7.8-0.2
			c43.4-2.5,141.9-29.3,196-110.7c-18.9-14.3-41-28.7-46.6-28.7C520.4,871.6,514.9,876.1,510.1,880.1z M280.7,984
			c-23-5.4-42.8-17.3-62.8-29.5c-5.4-3.3,0.6-10.1,5.7-7c18.9,11.4,37.5,22.4,59.1,27.8C287.9,976.6,286,985.2,280.7,984z
			 M299.9,989.9c-5.7,0-7.1-9.2-0.9-9.2C304.8,980.8,306.1,989.9,299.9,989.9z"/>
		<path fill="#320000" d="M562.4,598.4c-0.5,1-2,3.9-4.2,7.7c27.1,36.9,45.2,86.6,47.3,151.5c1.5,46.2-7.3,84.5-22.4,116.1
			c3,2.4,4.8,4,5.2,4.3c2.1,1.8,2.3,5,0.5,7.1c-1.8,2.1-5,2.3-7.1,0.5c-0.1-0.1-1.2-1.1-3.3-2.7c-1.5,2.9-3.1,5.7-4.7,8.5
			c1.8,1.4,3.4,2.6,4.6,3.5c1.8,1.4,2.3,3.8,1.5,5.8C603,864,617.6,817,615.7,757.3c-2.3-70.5-22.6-123.6-53-162.5
			C563.1,596,563,597.2,562.4,598.4z"/>
		<path fill="#320000" d="M146.8,900.3c0.7-0.6,2.3-2.1,4.5-4.1c-2.5-4.2-4.8-8.6-7-13.1c-1.9,1.5-3,2.4-3,2.5
			c-0.9,0.8-2.1,1.2-3.3,1.2c-1.4,0-2.8-0.6-3.8-1.7c3.4,7,7.2,13.7,11.2,20.2C144.9,903.5,145.4,901.6,146.8,900.3z"/>
		<path fill="#320000" d="M572.2,902.8c-1.3-1-2.6-2-3.9-3c-54.1,81.3-152.6,108.2-196,110.7c-2.4,0.1-5,0.2-7.8,0.2c0,0,0,0,0,0
			c-57.7,0-154.5-24.7-207.7-105.9c-1.1,1-2.2,1.9-3.1,2.9c-1.9,1.8-4.9,1.7-6.8-0.1c17.6,27.6,41,51,70.1,69.4
			c51,32.3,109.7,43.8,147.6,43.8c0,0,0,0,0,0c3,0,5.8-0.1,8.4-0.2c45.7-2.6,150.1-31.2,206-118.3
			C577.1,904.1,574.3,904.4,572.2,902.8z"/>
		<path fill="#320000" d="M133.1,882.6c-0.3-1.7,0.2-3.5,1.6-4.7c0.4-0.4,2.2-1.9,5.1-4.2c-10.8-24.6-18.1-53.2-20.3-86.5
			c-5.1-74.7,10.2-135.7,45.4-181.8c-2-3-3.4-5.3-3.9-6.2c-1.4-2.4-0.7-5.5,1.7-6.9c2.4-1.4,5.5-0.7,6.9,1.7c0.6,1,1.2,2,1.9,3.1
			c1.7-1.9,3.3-3.9,5-5.8c43.2-47.1,109.8-73.8,187.8-75.3c1.5,0,3,0,4.5,0c64,0,135.2,23.3,182.7,81.4c0.7-1.3,1.3-2.4,1.8-3.5
			c1.2-2.5,4.2-3.5,6.7-2.3c0.1,0,0.1,0.1,0.2,0.1C510.8,530.6,436,506,368.9,506c-1.6,0-3.2,0-4.7,0c-80.7,1.6-150,29.5-195,78.6
			c-45.4,49.5-65.5,117.9-59.7,203.3C111.8,822.8,119.9,854.5,133.1,882.6z"/>
		<path fill="#320000" d="M202.3,642.5c6.6,1.4,14.2-2.7,26.8-9.7c25-13.7,66.9-36.7,138.4-35.9c71,0.8,100.2,20.7,119.5,33.9
			c9.4,6.4,16.8,11.4,25.6,12c0.5,0,1.1,0,1.6,0c19.9,0,36.5-23.8,44-36.7c-2.2-3-4.4-5.8-6.7-8.6c-6.9,12.6-22.9,36.2-38.3,35.3
			c-6.1-0.4-12.2-4.5-20.6-10.3c-20.3-13.8-51-34.7-125-35.6c-74.3-0.9-117.6,22.9-143.4,37.1c-8.7,4.8-16.9,9.3-19.8,8.7
			c-9-2-24.1-21.6-32.8-35.5c-2.3,2.7-4.5,5.4-6.6,8.3C172.4,616.9,188.7,639.6,202.3,642.5z"/>
		<path fill="#320000" d="M560.3,591.8c0.8,1,1.6,2,2.4,3C562.3,593.5,561.5,592.5,560.3,591.8z"/>
		<path fill="#320000" d="M553.4,594c-0.5,1-1.1,2.2-1.8,3.5c2.3,2.8,4.5,5.7,6.7,8.6c2.2-3.7,3.6-6.6,4.2-7.7
			c0.6-1.2,0.6-2.5,0.3-3.6c-0.8-1-1.6-2-2.4-3c-0.1,0-0.1-0.1-0.2-0.1C557.6,590.5,554.6,591.5,553.4,594z"/>
		<path fill="#320000" d="M169.7,594.1c-1.4-2.4-4.5-3.2-6.9-1.7c-2.4,1.4-3.2,4.5-1.7,6.9c0.5,0.8,1.9,3.1,3.9,6.2
			c2.1-2.8,4.3-5.6,6.6-8.3C170.9,596.2,170.2,595.1,169.7,594.1z"/>
		<path fill="#320000" d="M521.8,861.1c-4.6,0-9.4,4-18.1,11.2c-21.7,17.9-66.7,55-144.6,54.2c-73.3-0.9-109.4-32.7-131-51.7
			c-9.7-8.5-16.1-14.1-22.8-13.7c-14.2,1.1-42.5,25-53.9,35c1.7,3,3.6,5.8,5.4,8.6c15.3-13.7,39.8-32.9,49.3-33.6
			c2.4-0.4,9.3,5.8,15.3,11.2C242.6,901,282,935.7,359,936.6c1,0,2,0,3,0c79.7,0,125.8-38.1,148.1-56.5c4.8-4,10.3-8.5,11.7-8.9
			c5.5,0,27.7,14.4,46.6,28.7c1.9-2.8,3.7-5.6,5.4-8.5C560.3,881.2,532.5,861.1,521.8,861.1C521.8,861.1,521.8,861.1,521.8,861.1z"
			/>
		<path fill="#320000" d="M146.5,907.4c0.1,0.1,0.2,0.1,0.3,0.2c-0.5-0.7-0.9-1.5-1.4-2.3C145.6,906,146,906.8,146.5,907.4z"/>
		<path fill="#320000" d="M579.3,901.9c0.3-0.4,0.4-0.8,0.6-1.2c-0.3,0.5-0.7,1-1,1.6C579,902.1,579.2,902.1,579.3,901.9z"/>
		<path fill="#320000" d="M578.4,894.9c-1.2-0.9-2.8-2.1-4.6-3.5c-1.7,2.9-3.6,5.7-5.4,8.5c1.3,1,2.6,2,3.9,3
			c2.1,1.6,4.9,1.3,6.7-0.6c0.3-0.5,0.7-1,1-1.6C580.7,898.7,580.2,896.3,578.4,894.9z"/>
		<path fill="#320000" d="M153.6,907.7c1-0.9,2.1-1.9,3.1-2.9c-1.8-2.8-3.7-5.7-5.4-8.6c-2.2,2-3.9,3.4-4.5,4.1
			c-1.4,1.3-1.9,3.3-1.4,5c0.5,0.8,0.9,1.5,1.4,2.3C148.7,909.4,151.7,909.5,153.6,907.7z"/>
		<path fill="#320000" d="M273.7,815.2c41.1-6.2,59.8-0.7,73.4,3.4c6.9,2,12.8,3.9,19.7,3.6c5.5-0.2,11.4-1.6,18.2-3.3
			c18-4.4,42.6-10.4,83.3,1.2c47.9,13.7,97.4,52.2,110.3,62.8c1.6-3,3.2-6.1,4.7-9.2c-12.1-9.8-43.6-34-79.7-50.9
			c-1,2.1-2,3.9-2.9,5.2c-1.6,2.3-4.7,2.8-7,1.3c-2.3-1.6-2.9-4.7-1.3-7c0.6-0.9,1.3-2.2,2.1-3.5c-7.7-3.2-15.5-6.1-23.4-8.3
			c-2.3-0.7-4.6-1.3-6.9-1.8c-1.7,2.5-3.6,4.8-5.5,6.7c-1,1-2.3,1.5-3.5,1.5c-1.3,0-2.6-0.5-3.6-1.5c-2-2-1.9-5.2,0-7.1
			c0.6-0.6,1.1-1.3,1.6-1.9c-33.1-6.2-55.3-0.9-70.7,2.9c-6.3,1.5-11.7,2.9-16.2,3c-5.3,0.1-10.2-1.3-16.5-3.2
			c-14.3-4.3-33.9-10.1-75.9-3.9c0.7,0.5,1.2,0.8,1.2,0.8c2.4,1.3,3.4,4.4,2.1,6.8c-1.3,2.5-4.4,3.4-6.8,2.1
			c-0.4-0.2-4.3-2.4-9.1-7.3c-13.1,3.1-26.3,8-39.1,14c1.1,3,1.9,4.8,1.9,4.8c1.1,2.5,0,5.5-2.6,6.6c-0.7,0.3-1.4,0.4-2,0.4
			c-1.9,0-3.8-1.1-4.6-3c-0.2-0.3-0.8-1.9-1.8-4.5c-33.3,16.9-62,38.8-73.3,48c1.4,3.2,2.9,6.3,4.5,9.4
			C158.6,871.5,220.6,823.2,273.7,815.2z"/>
		<path fill="#320000" d="M134.2,885C134.2,885.1,134.2,885.1,134.2,885c-0.3-0.8-0.7-1.6-1-2.4C133.3,883.5,133.6,884.3,134.2,885z
			"/>
		<path fill="#320000" d="M581.8,885.6c2.1,1.8,5.3,1.6,7.1-0.5c1.8-2.1,1.6-5.3-0.5-7.1c-0.4-0.3-2.2-1.9-5.2-4.3
			c-1.5,3.1-3,6.2-4.7,9.2C580.6,884.5,581.7,885.5,581.8,885.6z"/>
		<path fill="#320000" d="M141.3,885.6c0.1-0.1,1.2-1,3-2.5c-1.5-3.1-3-6.2-4.5-9.4c-2.9,2.3-4.7,3.9-5.1,4.2
			c-1.4,1.2-1.9,3-1.6,4.7c0.4,0.8,0.7,1.6,1.1,2.4c1,1.1,2.4,1.7,3.8,1.7C139.2,886.8,140.3,886.4,141.3,885.6z"/>
		<path fill="#320000" d="M521.1,716.1c-8.4-37.9-50.1-102-153.9-101.4c-127.5,0.8-157.1,75.6-163.9,107.7
			c-9.7,45.8,4.6,89.4,10,103.3c3-1.5,6-3,9.1-4.4c-5.1-13.8-18.1-54.9-9.2-96.8c6.3-29.7,33.9-99,154.1-99.7c0.5,0,1,0,1.5,0
			c96.1,0,134.8,58.7,142.6,93.5c6.6,29.9-7.6,82.7-16.9,100.5c3.1,1.3,6.1,2.6,9.1,4.1C513.7,802.4,528.2,748.2,521.1,716.1z"/>
		<path fill="#320000" d="M215,830.3c0.8,1.9,2.7,3,4.6,3c0.7,0,1.4-0.1,2-0.4c2.5-1.1,3.7-4.1,2.6-6.6c0-0.1-0.8-1.8-1.9-4.8
			c-3.1,1.4-6.1,2.9-9.1,4.4C214.2,828.3,214.9,829.9,215,830.3z"/>
		<path fill="#320000" d="M492.3,822.3c-1.6,2.3-1,5.4,1.3,7c2.3,1.6,5.4,1,7-1.3c0.9-1.3,1.9-3.1,2.9-5.2c-3-1.4-6.1-2.8-9.1-4.1
			C493.7,820.1,493,821.4,492.3,822.3z"/>
		<path fill="#320000" d="M456.4,695.6c-25.2-27.5-47.8-30.5-59.1-29.7c-9.7,0.6-17.8,4.3-21.7,9.9c-5.9,8.5-2.8,18.9,1.6,33.3
			c2.1,7,4.5,14.9,6.4,24.2c2.6,13-4.4,23.3-12.8,26.8c-3.3,1.4-11.7,3.6-17.7-5.4c-9.7-14.5-4.9-29.4-0.2-43.7
			c1.3-3.9,2.5-7.6,3.4-11.4c2.7-10.7,1.2-19.8-4.4-26.1c-6.4-7.3-17.1-10.1-31.8-8.4c-33.2,3.9-81.8,32.5-80.5,81.8
			c0.9,33.2,13,51.5,21.9,60.5c3.6-0.8,7.2-1.6,10.7-2.1c0.6-0.1,1.2-0.2,1.9-0.3c-5-3.4-23.4-18.8-24.4-58.4
			c-1.2-47.2,48.7-68.9,71.6-71.6c11.1-1.3,19.1,0.4,23.1,5c4.2,4.8,3.5,11.9,2.2,17.1c-0.8,3.4-2,6.9-3.2,10.7
			c-4.9,15.1-11,33.8,1.4,52.4c6.8,10.3,18.6,13.9,29.9,9.1c12.2-5.1,22.5-19.8,18.8-38.1c-2-9.7-4.5-17.9-6.6-25.1
			c-3.5-11.7-6.1-20.1-3-24.6c1.7-2.5,6.7-5.1,14.1-5.6c7.6-0.5,27.8,1.1,51,26.4c30.7,33.5,20.3,85.3,4.3,103.9
			c3.5,0.7,7.1,1.4,10.9,2.4C480.7,784.3,489.2,731.5,456.4,695.6z"/>
		<path fill="#320000" d="M261.4,807.4c4.8,4.9,8.7,7.1,9.1,7.3c2.5,1.3,5.5,0.4,6.8-2.1c1.3-2.5,0.4-5.5-2.1-6.8
			c0,0-0.5-0.3-1.2-0.8c-0.6,0.1-1.2,0.2-1.9,0.3C268.6,805.8,265,806.5,261.4,807.4z"/>
		<path fill="#320000" d="M451.6,808.1c-2,2-2,5.1,0,7.1c1,1,2.3,1.5,3.6,1.5c1.3,0,2.6-0.5,3.5-1.5c1.9-1.9,3.7-4.1,5.5-6.7
			c-3.8-0.9-7.4-1.7-10.9-2.4C452.7,806.9,452.2,807.6,451.6,808.1z"/>
		<path fill="#320000" d="M282.7,975.3c-21.6-5.4-40.2-16.4-59.1-27.8c-5.1-3.1-11.1,3.7-5.7,7c20,12.2,39.8,24.1,62.8,29.5
			C286,985.2,287.9,976.6,282.7,975.3z"/>
		<path fill="#320000" d="M299.1,980.8c-6.2,0-4.8,9.2,0.9,9.2C306.1,989.9,304.8,980.8,299.1,980.8z"/>
		<path fill="#320000" d="M279.5,768.6c-3.8-7-7.4-13.6-8.4-21.6c-1.2-9.2,3-18.6,6.4-27c2.3-5.8-7.2-7.7-9.5-2.3
			c-3.5,8.6-6.2,16.9-6.8,26.3c-0.7,10.6,4.9,20.2,9.8,29.1C273.8,778.2,282.4,774,279.5,768.6z"/>
		<path fill="#320000" d="M281.6,780.5c-6.3,0-5.4,9.1,0.6,9.1C288.5,789.6,287.7,780.5,281.6,780.5z"/>
		<path fill="#320000" d="M361.9,739.1c-2.6-6-1-12,0.3-18.2c1.3-5.7-8.5-6.6-9.7-0.8c-1.5,7.3-3.3,15,0.3,22
			C355.4,747.2,364.4,744.8,361.9,739.1z"/>
		<path fill="#320000" d="M362.5,747.8c-6.3,0-4.4,9,1.4,9C370.2,756.9,368.3,747.8,362.5,747.8z"/>
		<path fill="#320000" d="M298.7,833.6c-5.7,3.8-11.2,7.9-16.4,12.3c-4.8,4,1.5,11.1,6,7.3c5.5-4.6,11.2-8.9,17.1-12.8
			c2.2-1.4,1.7-4.8,0.2-6.4C303.6,832,300.8,832.1,298.7,833.6z"/>
		<path fill="#320000" d="M377.3,837.1c-17.4,12.5-34.5,25.5-51.7,38.4c-5,3.8,1.7,10.5,6.4,6.9c17.3-13,34.6-26.1,52.2-38.7
			C389.2,840.1,381.9,833.8,377.3,837.1z"/>
		<path fill="#320000" d="M444.3,850.8c-9.4,7-18.9,13.9-28.3,20.8c-5.1,3.7,0.1,11.5,5.1,7.8c9.6-7,19.2-13.9,28.7-21.1
			C454.8,854.6,449.2,847.2,444.3,850.8z"/>
		<path fill="#320000" d="M139,677.3c-10.4,33.6-11.3,65.4-7.8,100.2c0.6,5.9,10.3,6,9.8,0c-3.1-33.9-2.8-64.7,7.3-97.6
			C150.1,674,140.7,671.6,139,677.3z"/>
		<path fill="#320000" d="M138.3,792.3c-6.1,0-7.4,9-1.1,9C143.3,801.3,144.6,792.3,138.3,792.3z"/>
		<path fill="#320000" d="M248,564.6c33.7-17.5,68.9-24.8,106.7-26.5c6.2-0.3,6.5-9.3,0.3-9.1c-39.2,1.5-76.3,8.9-111.2,27.2
			C238.3,559.1,242.8,567.3,248,564.6z"/>
		<path fill="#320000" d="M373.6,539.1c6.1,0,7.3-9.3,0.9-9.3C368.4,529.8,367.3,539.1,373.6,539.1z"/>
	</g>
	<g>
		<path fill="#872032" d="M867.7,742.4c2.5,1.4,4.9,4.2,9.1,9.2c5.6,6.6,14.2,16.7,27,27.5c4.6-2.9,13.4-8.2,24.3-14.4
			c-9.5-11.4-30.6-40.7-29.5-75.9c0.6-18.8,7.5-36.4,20.5-52.5c-13.7,4.1-26,8.3-36.4,11.8c-13.3,4.5-22.9,7.7-29,8.9
			c-21.2,4-36.8-21.1-43.3-34.1c-3,3.6-5.6,7.2-7.6,11.1c-3.7,7-3.8,57.5,23,111.9C836,742.9,858.3,737.3,867.7,742.4z"/>
		<path fill="#53141D" d="M1140.4,678.1c-2-15-10.2-28.2-22.4-36.3c-8.6-5.7-18.2-7.8-25.6-5.7c-6.2,1.7-10.3,5-12.4,9.7
			c-2.8,6.3-1.8,15.2,2.5,23.9c5.2,10.4,7.4,25.9,0.7,37c-3.4,5.6-10.5,12.4-24.9,12.7c-11.7,0.2-20.6-5.1-25.4-15.1
			c-5.6-11.7-4.4-28.8,2.8-37.3c4.4-5.3,7-17.2,3.7-26c-2-5.5-6.1-8.8-12-9.8c-9-1.5-22.1,3.3-33.3,12.2
			c-14.5,11.6-23.3,27.4-24,43.2c-1.3,26.8,12,44.2,17.3,50c2.6-0.9,5.2-1.8,7.7-2.5c29.5-8.4,47.8-0.4,57.6,3.9
			c2.1,0.9,4.7,2,5.5,2.1c0,0,0,0,0,0c1.5,0,3.9-1,6.9-2.4c6.1-2.7,15.2-6.7,30-7.3c6.9-0.4,17.7,2.2,30.1,6.2
			C1133.8,727.8,1144.2,706.3,1140.4,678.1z M989.8,714c-9.4-15.5-8.7-30.4-4.9-47.7c1.3-6.1,11.6-5,10.2,1.2
			c-3.4,15.5-4.1,28.2,3.9,42.3C1002.2,715.4,992.9,719.2,989.8,714z M1002.9,729c-6.4,0-7.8-9.5-1.2-9.5
			C1008.1,719.4,1009.5,729,1002.9,729z"/>
		<path fill="#FFFDE3" d="M1253.8,750.7c-1.4,1-4.6,4.1-7.7,7c-23.4,22.5-84.5,81.2-189.9,81.2c-3.1,0-6.3-0.1-9.5-0.2
			c-73.2-2.4-118.7-26.5-146.6-49c-0.1-0.1-0.3-0.2-0.4-0.3c-15-12.1-24.8-23.7-31-31.1c-2.4-2.9-5.2-6.2-6.2-6.8
			c-4.1-2.2-18.5,0.1-31.8,3.8c0.9,1.6,1.7,3.1,2.6,4.7c29.2,50.5,89.8,111.6,212.8,116.6c4.2,0.1,8.3,0.2,12.4,0.2
			c120,0,189-65.3,224.1-121.2C1274.7,751.7,1260.4,750,1253.8,750.7z M1001,864.8c-14.2-2.3-28.1-4.7-41.7-9.5
			c-12.5-4.4-21.8-12.7-33.1-19.2c-5.6-3.2-1.6-11.8,4.1-8.5c8.1,4.7,15.2,11,23.7,15.1c15.3,7.2,31.3,10.1,47.9,12.7
			C1008.1,856.3,1007.5,865.8,1001,864.8z M1024.8,868.3c-6.6,0-5.6-9.6,0.9-9.6C1032.3,858.8,1031.3,868.3,1024.8,868.3z"/>
		<path fill="#872032" d="M1261.1,658.1c-2.4,0-4.8-0.3-7.3-0.8c-5.2-1.2-12.9-3.7-23.6-7.1c-6.9-2.2-15-4.9-24-7.6
			c24.5,62.1-7.9,104.3-22.1,118.8c10.3,5.2,19.2,10.2,25.6,14.3c12.9-9.9,22.5-19.2,29.1-25.5c7.1-6.8,9.7-9.4,12.9-9.8
			c7.8-1.2,25.4,0.4,36.5,6.3c14.5-25.1,22-47.5,24.3-59.6c4.7-25.5,7-45.3-6.5-64C1297.4,640.3,1280.8,658.1,1261.1,658.1z"/>
		<path fill="#FFFDE3" d="M851.8,646.6c5.4-1,15.2-4.3,27.6-8.5c40.6-13.7,108.5-36.7,179.3-33.9c53.1,2,102.8,14.1,139.7,25
			c0,0,0.1,0,0.1,0c13.5,4,25.4,7.8,34.9,10.9c10,3.3,18,5.8,22.7,6.9c17.7,4,35.1-15.6,42.2-32.8c-8.1-7.9-19.4-15.7-35.2-23.9
			c-62.9-32.4-147.7-39.2-207.7-39.2c-3.2,0-6.3,0-9.4,0.1c-73.5,0.8-182.7,23.2-227.7,63.6C823.8,627,837.2,649.2,851.8,646.6z
			 M1154.2,600.3c6.6,0,6.1,9.6-0.4,9.6C1147.2,609.9,1147.7,600.3,1154.2,600.3z M1001,589.8c46.3-5.5,90-1.6,135.4,8
			c6.4,1.4,4.6,10.7-1.8,9.4c-44.3-9.5-86.8-13.2-131.9-7.9C996.3,600,994.4,590.6,1001,589.8z M850.9,632.1c6.6,0,5.9,9.6-0.7,9.6
			C843.7,641.7,844.4,632.1,850.9,632.1z M835.5,611.3c1.1,2.2,2.5,4.3,4.2,6.2c0.7,0.7,1.4,1.5,2.1,2.2c0.6,0.5,3.7,3.7,4,3.7
			c0.8-0.2,1.1,3.2,1.1,3.5c-0.2,1.3-0.9,2.4-1.9,3.2c-1.8,1.3-4.5,1.3-6.3,0c-5.2-4-9.5-8.7-12.4-14.7
			C823.8,610.3,833.1,606.5,835.5,611.3z"/>
		<path fill="#F04E3C" d="M1069.4,747.3c-4,1.8-7.4,3.3-11.2,3.3c0,0,0,0,0,0c-2.9,0-5.9-1.3-9.7-3c-9.2-4-24.7-10.8-50.5-3.4
			c-28.6,8.2-69.6,32.3-85.3,41.9c27,19.9,69.1,39.9,134.3,42.1c69.8,2.2,120.3-22.3,153.5-45.8c-26.4-16.1-86.9-42.3-104.9-41.5
			C1082.8,741.4,1075.4,744.7,1069.4,747.3z M1008,775.7c-7.6,4.1-14.6,8.9-21.6,13.8c-5,3.5-12.4-3.3-7-7.1
			c7.3-5.1,14.7-10.1,22.5-14.4C1007.2,764.9,1013.8,772.6,1008,775.7z M1118.6,792.2c5.2-4.3,10.7-8.3,16.4-11.9
			c5.2-3.3,11.9,4.3,6.3,7.7c-5.4,3.3-10.5,7.1-15.4,11C1121.1,803,1113.5,796.4,1118.6,792.2z M1102,771.6
			c-21.9,11.1-43.2,23.2-64.9,34.6c-5.6,2.9-10.1-5.7-4.2-8.8c21.4-11.2,42.4-23.1,63.9-34.2C1102.2,760.4,1107.8,768.6,1102,771.6z
			"/>
		<path fill="#6C1224" d="M909.3,689.1c-1.1,33.1,20.7,61.5,28.4,70.4c12.2-6.6,26.1-13.6,39.2-19c-7.2-9-18.6-27.6-17.3-54.5
			c0.9-18.8,11.1-37.4,28-50.9c13.9-11.1,29.5-16.5,41.7-14.4c9.7,1.7,16.8,7.6,20.2,16.6c4.7,12.8,0.8,28.9-5.5,36.5
			c-4.1,4.9-5.5,17.3-1.4,26c3,6.2,8.2,9.5,15.6,9.1c7.7-0.1,13.1-2.7,16-7.6c4.6-7.6,2.6-19.2-1.1-26.8
			c-5.8-11.7-6.8-23.7-2.7-32.9c3.4-7.6,10-13,19.3-15.6c10.5-3,23-0.4,34.2,7.1c14.8,9.7,24.7,25.6,27.1,43.7
			c3.9,28.8-5.3,51.4-14.9,63.6c12.5,4.6,25.8,10.3,38.1,16.2c10.7-9.7,49.9-51.4,18.9-117.9c-36.1-10.5-84-21.9-134.7-23.8
			c-42.5-1.6-84.1,6.4-119.1,15.8C920.1,648.1,910,667.8,909.3,689.1z M1059.4,697.3c6.6,0,7.1,9.7,0.5,9.7
			C1053.3,707,1052.8,697.3,1059.4,697.3z M1054.2,681.9c-1,1.5-1.3,3.7-0.9,5.4c0.2,0.9,0.9,1.3,1.3,2c0.6,1.1,1,2,1.2,3.3
			c1.1,6.3-9,7.5-10.1,1.4c0.2,1-0.8-0.6-0.8-0.6c-0.4-0.6-0.8-1.2-1.1-1.9c-0.5-1.7-1-3.3-1-5.1c0.1-3.7,0.8-6.7,2.7-9.9
			C1048.8,671.3,1057.8,676.7,1054.2,681.9z"/>
		<path fill="#320000" d="M1268,581c-64.8-33.3-151.3-40.3-212.5-40.3c-3.2,0-6.4,0-9.6,0.1c-73.9,0.8-190.2,23.4-237.5,69.1
			c0.5-0.4,1-0.8,1.6-1.1c2.7-1.1,5.8,0.2,6.9,2.9c0.4,1,0.9,2.1,1.4,3.2c45.1-40.4,154.3-62.8,227.7-63.6c3.1,0,6.3-0.1,9.4-0.1
			c60,0,144.8,6.8,207.7,39.2c15.7,8.1,27.1,15.9,35.2,23.9c0.4-1,0.8-2,1.2-3c1-2.8,4-4.2,6.7-3.3c2.8,1,4.2,4,3.3,6.7
			c-0.9,2.7-2.1,5.5-3.5,8.3c13.5,18.7,11.1,38.6,6.5,64c-2.2,12.2-9.8,34.5-24.3,59.6c2.1,1.1,4,2.4,5.6,3.8
			c1.4,1.3,1.8,3.1,1.5,4.8c16.6-27.9,25.2-53,27.7-66.4C1330.9,644.9,1331.5,613.6,1268,581z"/>
		<path fill="#320000" d="M1286.4,758.2c-1-0.9-2.3-1.7-3.7-2.4c-35.1,55.9-104.1,121.2-224.1,121.2c-4.1,0-8.2-0.1-12.4-0.2
			c-123-5-183.6-66.2-212.8-116.6c-0.9-1.6-1.8-3.1-2.6-4.7c-2.1,0.6-4.1,1.2-6.1,1.8c-2.8,0.9-5.8-0.6-6.7-3.4
			c-0.9-2.8,0.6-5.8,3.4-6.7c0.9-0.3,2.4-0.8,4.3-1.3C799,691.5,799.1,641,802.8,634c2-3.8,4.6-7.5,7.6-11.1c-2-4-3.2-6.9-3.4-7.4
			c-0.8-2-0.3-4.1,1.1-5.6c-6.2,6-11.2,12.3-14.7,19.1c-6.6,12.7-4,76.1,30.8,136.3c30.5,52.8,93.7,116.7,221.5,121.9
			c4.3,0.2,8.6,0.2,12.8,0.2c0,0,0,0,0,0c126.5,0,198.5-70.1,234.7-129.1C1291.2,760,1288.4,760,1286.4,758.2z"/>
		<path fill="#320000" d="M1256.2,647c-4.7-1.1-12.6-3.6-22.7-6.9c-9.6-3.1-21.4-6.9-34.9-10.9c1.3,0.4,2.4,1.4,3,2.7
			c1.8,3.6,3.3,7.2,4.6,10.7c9,2.8,17.1,5.4,24,7.6c10.7,3.5,18.5,6,23.6,7.1c2.5,0.6,4.9,0.8,7.3,0.8c19.7,0,36.3-17.9,44.8-35.1
			c-2.1-3-4.7-5.9-7.6-8.8C1291.3,631.4,1273.9,651,1256.2,647z"/>
		<path fill="#320000" d="M808.2,610c0.1-0.1,0.1-0.1,0.2-0.2C808.3,609.8,808.2,609.9,808.2,610z"/>
		<path fill="#320000" d="M810.4,622.9c6.5,13,22.1,38,43.3,34.1c6.2-1.1,15.8-4.4,29-8.9c10.4-3.5,22.7-7.7,36.4-11.8
			c4-5,8.6-9.8,13.8-14.4c2.2-2,5.5-1.8,7.5,0.4c2,2.2,1.8,5.5-0.4,7.5c-0.3,0.3-0.6,0.6-0.8,0.8c35-9.5,76.6-17.4,119.1-15.8
			c50.7,1.9,98.6,13.3,134.7,23.8c-0.3-0.7-0.6-1.4-1-2.1c-1.3-2.6-0.2-5.8,2.5-7.1c1.3-0.6,2.7-0.7,4-0.3
			c-36.9-10.9-86.7-22.9-139.7-25c-70.8-2.7-138.7,20.2-179.3,33.9c-12.4,4.2-22.1,7.5-27.6,8.5c-14.6,2.6-28-19.6-33.5-31.7
			C815.4,617.5,812.8,620.2,810.4,622.9z"/>
		<path fill="#320000" d="M1306,623c1.4-2.8,2.6-5.6,3.5-8.3c1-2.8-0.5-5.8-3.3-6.7c-2.8-1-5.8,0.5-6.7,3.3c-0.3,1-0.7,2-1.2,3
			C1301.3,617.1,1303.8,620.1,1306,623z"/>
		<path fill="#320000" d="M807.1,615.6c0.2,0.4,1.4,3.3,3.4,7.4c2.3-2.8,4.9-5.4,7.8-8c-0.5-1.2-1-2.3-1.4-3.2
			c-1.1-2.7-4.2-4-6.9-2.9c-0.6,0.3-1.2,0.6-1.6,1.1c-0.1,0.1-0.1,0.1-0.2,0.2C806.8,611.4,806.3,613.6,807.1,615.6z"/>
		<path fill="#320000" d="M862.6,751.7c1,0.6,3.7,3.9,6.2,6.8c6.2,7.3,16,18.9,31,31.1c-0.3-0.3-0.6-0.6-0.8-1
			c-1.6-2.5-0.9-5.7,1.6-7.3c0.3-0.2,1.5-0.9,3.3-2.1c-12.9-10.8-21.5-21-27-27.5c-4.3-5.1-6.6-7.9-9.1-9.2
			c-9.4-5.1-31.7,0.4-41.9,3.4c1.6,3.2,3.2,6.4,5,9.6C844,751.8,858.5,749.5,862.6,751.7z"/>
		<path fill="#320000" d="M1251.6,740.4c-3.1,0.4-5.8,3-12.9,9.8c-6.6,6.3-16.2,15.6-29.1,25.5c1.2,0.8,2.3,1.5,3.3,2.2
			c2.4,1.7,2.9,5,1.2,7.4c-1.7,2.4-5,2.9-7.4,1.2c-1.8-1.3-3.9-2.6-6.3-4.1c-33.1,23.5-83.7,48-153.5,45.8
			c-65.2-2.2-107.4-22.1-134.3-42.1c-4,2.4-6.4,4-6.5,4c-0.9,0.6-1.9,0.8-2.9,0.8c-1.2,0-2.3-0.4-3.3-1.2
			c27.8,22.4,73.3,46.5,146.6,49c3.2,0.1,6.4,0.2,9.5,0.2c105.4,0,166.5-58.7,189.9-81.2c3.1-3,6.3-6.1,7.7-7c6.6-0.7,20.9,1,28.9,5
			c1.9-3.1,3.7-6.1,5.5-9.1C1277,740.7,1259.4,739.2,1251.6,740.4z"/>
		<path fill="#320000" d="M1293.9,758c0.7-0.8,1.1-1.7,1.3-2.7c-0.6,1-1.3,2.1-1.9,3.1C1293.5,758.3,1293.7,758.2,1293.9,758z"/>
		<path fill="#320000" d="M821.5,747.2c-2.8,0.9-4.3,3.9-3.4,6.7c0.9,2.8,3.9,4.3,6.7,3.4c2-0.6,4-1.2,6.1-1.8
			c-1.8-3.2-3.4-6.4-5-9.6C823.9,746.4,822.4,746.9,821.5,747.2z"/>
		<path fill="#320000" d="M1293.7,750.5c-1.5-1.5-3.4-2.7-5.6-3.8c-1.7,3-3.5,6-5.5,9.1c1.5,0.7,2.8,1.5,3.7,2.4
			c1.9,1.8,4.8,1.8,6.8,0.2c0.6-1,1.3-2.1,1.9-3.1C1295.5,753.6,1295.1,751.8,1293.7,750.5z"/>
		<path fill="#320000" d="M900.1,789.9c-0.1-0.1-0.3-0.2-0.4-0.3C899.8,789.7,900,789.8,900.1,789.9z"/>
		<path fill="#320000" d="M1178.1,767c-1,0.7-2.1,1.1-3.2,1.1c-1.6,0-3.1-0.7-4.2-2c-1.8-2.3-1.4-5.6,0.9-7.4
			c0.3-0.2,1.2-0.9,2.5-2.2c-12.3-5.8-25.6-11.6-38.1-16.2c-2.1,2.7-4.2,4.9-6.2,6.5c-1,0.8-2.1,1.2-3.3,1.2c-1.5,0-3.1-0.7-4.1-2
			c-1.8-2.3-1.5-5.6,0.8-7.4c0.7-0.6,1.4-1.2,2.1-2c-12.4-4.1-23.2-6.6-30.1-6.2c-14.8,0.6-23.9,4.6-30,7.3c-3,1.3-5.4,2.4-6.9,2.4
			c0,0,0,0,0,0c-0.8,0-3.4-1.2-5.5-2.1c-9.8-4.3-28.2-12.3-57.6-3.9c-2.5,0.7-5.1,1.6-7.7,2.5c1.3,1.4,2.1,2.1,2.1,2.2
			c2.2,1.9,2.4,5.3,0.5,7.5s-5.3,2.4-7.5,0.5c-0.3-0.3-2.6-2.4-5.6-6.1c-13.2,5.4-27,12.3-39.2,19c1.6,1.8,2.6,2.9,2.7,3
			c2,2.1,2,5.4-0.1,7.5c-1,1-2.4,1.5-3.7,1.5c-1.4,0-2.7-0.5-3.8-1.6c-0.3-0.3-2.1-2.1-4.6-5.1c-10.9,6.2-19.8,11.6-24.3,14.4
			c2.8,2.3,5.7,4.6,8.9,7c15.7-9.6,56.7-33.7,85.3-41.9c25.8-7.4,41.3-0.6,50.5,3.4c3.8,1.7,6.8,3,9.7,3c0,0,0,0,0,0
			c3.8,0,7.2-1.5,11.2-3.3c6-2.6,13.4-5.9,26.1-6.4c18-0.8,78.5,25.4,104.9,41.5c3.2-2.3,6.3-4.5,9.1-6.8
			c-6.3-4.1-15.3-9.1-25.6-14.3C1180.6,765,1178.2,766.9,1178.1,767z"/>
		<path fill="#320000" d="M900.5,781.3c-2.5,1.6-3.2,4.9-1.6,7.3c0.2,0.4,0.5,0.7,0.8,1c0.1,0.1,0.3,0.2,0.4,0.3
			c0.9,0.7,2.1,1.2,3.3,1.2c1,0,2-0.3,2.9-0.8c0.1-0.1,2.5-1.6,6.5-4c-3.2-2.3-6.1-4.7-8.9-7C902,780.3,900.8,781.1,900.5,781.3z"/>
		<path fill="#320000" d="M1206.8,786.5c2.4,1.7,5.7,1.1,7.4-1.2c1.7-2.4,1.1-5.7-1.2-7.4c-1-0.7-2.2-1.5-3.3-2.2
			c-2.9,2.2-5.9,4.5-9.1,6.8C1202.9,783.9,1205.1,785.3,1206.8,786.5z"/>
		<path fill="#320000" d="M928.2,764.7c3-1.7,6.2-3.5,9.5-5.2c-7.7-8.9-29.4-37.3-28.4-70.4c0.7-21.3,10.8-41,29.9-58.5
			c-6.9,1.9-13.6,3.8-20,5.7c-13,16-19.9,33.6-20.5,52.5C897.6,724,918.6,753.3,928.2,764.7z"/>
		<path fill="#320000" d="M940,629.8c2.2-1.9,2.4-5.3,0.4-7.5c-1.9-2.2-5.3-2.4-7.5-0.4c-5.2,4.7-9.8,9.5-13.8,14.4
			c6.4-1.9,13.1-3.9,20-5.7C939.5,630.3,939.7,630.1,940,629.8z"/>
		<path fill="#320000" d="M936.5,771.5c1.3,0,2.7-0.5,3.7-1.5c2.1-2,2.1-5.4,0.1-7.5c-0.1-0.1-1.1-1.1-2.7-3
			c-3.3,1.8-6.5,3.5-9.5,5.2c2.5,3,4.3,4.8,4.6,5.1C933.8,770.9,935.1,771.5,936.5,771.5z"/>
		<path fill="#320000" d="M1198.5,629.2c0,0,0.1,0,0.1,0C1198.5,629.2,1198.5,629.2,1198.5,629.2z"/>
		<path fill="#320000" d="M1174.1,756.5c3.4,1.6,6.8,3.3,10,4.9c14.2-14.5,46.7-56.7,22.1-118.8c-4.2-1.3-8.6-2.6-13.2-3.9
			C1224,705,1184.8,746.8,1174.1,756.5z"/>
		<path fill="#320000" d="M1201.6,631.9c-0.6-1.3-1.7-2.2-3-2.7c0,0-0.1,0-0.1,0c-1.3-0.4-2.7-0.4-4,0.3c-2.6,1.3-3.7,4.4-2.5,7.1
			c0.3,0.7,0.6,1.4,1,2.1c4.6,1.3,9,2.7,13.2,3.9C1204.8,639,1203.3,635.5,1201.6,631.9z"/>
		<path fill="#320000" d="M1171.6,758.6c-2.3,1.8-2.7,5.1-0.9,7.4c1,1.3,2.6,2,4.2,2c1.1,0,2.3-0.4,3.2-1.1c0.1-0.1,2.5-2,6-5.6
			c-3.2-1.6-6.6-3.3-10-4.9C1172.7,757.7,1171.8,758.4,1171.6,758.6z"/>
		<path fill="#320000" d="M970.1,686.5c0.8-15.8,9.5-31.5,24-43.2c11.2-9,24.3-13.8,33.3-12.2c6,1,10,4.3,12,9.8
			c3.2,8.8,0.6,20.8-3.7,26c-7.1,8.5-8.4,25.6-2.8,37.3c4.8,10,13.7,15.3,25.4,15.1c14.4-0.3,21.5-7,24.9-12.7
			c6.7-11.1,4.5-26.6-0.7-37c-4.4-8.7-5.3-17.6-2.5-23.9c2.1-4.7,6.3-8,12.4-9.7c7.4-2.1,17,0.1,25.6,5.7
			c12.2,8,20.4,21.3,22.4,36.3c3.8,28.2-6.6,49.7-15.2,58.4c3.5,1.1,7.1,2.4,10.7,3.7c9.6-12.2,18.8-34.8,14.9-63.6
			c-2.4-18-12.3-34-27.1-43.7c-11.3-7.4-23.8-10-34.2-7.1c-9.2,2.6-15.9,8-19.3,15.6c-4.1,9.3-3.1,21.3,2.7,32.9
			c3.8,7.6,5.7,19.1,1.1,26.8c-2.9,4.9-8.3,7.4-16,7.6c-7.4,0.3-12.6-2.9-15.6-9.1c-4.2-8.7-2.7-21.1,1.4-26
			c6.3-7.6,10.3-23.7,5.5-36.5c-3.3-9.1-10.5-15-20.2-16.6c-12.2-2.1-27.8,3.3-41.7,14.4c-16.9,13.5-27.1,32.1-28,50.9
			c-1.3,27,10.1,45.6,17.3,54.5c3.6-1.5,7.1-2.8,10.5-4C982.1,730.7,968.8,713.3,970.1,686.5z"/>
		<path fill="#320000" d="M982.5,746.6c2.2,1.9,5.5,1.7,7.5-0.5s1.7-5.5-0.5-7.5c0,0-0.9-0.8-2.1-2.2c-3.4,1.2-6.9,2.5-10.5,4
			C979.9,744.3,982.2,746.4,982.5,746.6z"/>
		<path fill="#320000" d="M1123.1,738.5c-2.3,1.8-2.6,5.2-0.8,7.4c1,1.3,2.6,2,4.1,2c1.2,0,2.3-0.4,3.3-1.2c2-1.6,4.1-3.8,6.2-6.5
			c-3.7-1.4-7.3-2.6-10.7-3.7C1124.5,737.3,1123.8,738,1123.1,738.5z"/>
		<path fill="#320000" d="M999,709.7c-8-14.1-7.3-26.8-3.9-42.3c1.4-6.3-8.9-7.3-10.2-1.2c-3.8,17.3-4.5,32.3,4.9,47.7
			C992.9,719.2,1002.2,715.4,999,709.7z"/>
		<path fill="#320000" d="M1001.7,719.4c-6.6,0-5.2,9.5,1.2,9.5C1009.5,729,1008.1,719.4,1001.7,719.4z"/>
		<path fill="#320000" d="M1045.6,676.5c-1.9,3.2-2.6,6.2-2.7,9.9c0,1.8,0.4,3.4,1,5.1c0.3,0.7,0.6,1.3,1.1,1.9c0,0.1,1,1.7,0.8,0.6
			c1.1,6,11.2,4.8,10.1-1.4c-0.2-1.3-0.6-2.2-1.2-3.3c-0.4-0.8-1.1-1.1-1.3-2c-0.4-1.7-0.1-3.9,0.9-5.4
			C1057.8,676.7,1048.8,671.3,1045.6,676.5z"/>
		<path fill="#320000" d="M1059.9,707c6.6,0,6.1-9.7-0.5-9.7C1052.8,697.3,1053.3,707,1059.9,707z"/>
		<path fill="#320000" d="M1001.9,767.9c-7.8,4.3-15.2,9.3-22.5,14.4c-5.4,3.8,1.9,10.6,7,7.1c7-4.9,14.1-9.7,21.6-13.8
			C1013.8,772.6,1007.2,764.9,1001.9,767.9z"/>
		<path fill="#320000" d="M1037.1,806.2c21.7-11.4,43-23.5,64.9-34.6c5.9-3,0.2-11.2-5.3-8.4c-21.5,11.1-42.5,22.9-63.9,34.2
			C1027,800.5,1031.4,809.2,1037.1,806.2z"/>
		<path fill="#320000" d="M1125.9,799.1c4.9-4,10-7.7,15.4-11c5.6-3.4-1-11-6.3-7.7c-5.7,3.6-11.1,7.6-16.4,11.9
			C1113.5,796.4,1121.1,803,1125.9,799.1z"/>
		<path fill="#320000" d="M1001.9,855.3c-16.5-2.6-32.6-5.5-47.9-12.7c-8.6-4.1-15.6-10.4-23.7-15.1c-5.6-3.3-9.7,5.3-4.1,8.5
			c11.3,6.5,20.6,14.8,33.1,19.2c13.6,4.8,27.5,7.2,41.7,9.5C1007.5,865.8,1008.1,856.3,1001.9,855.3z"/>
		<path fill="#320000" d="M1025.7,858.8c-6.5,0-7.5,9.6-0.9,9.6C1031.3,868.3,1032.3,858.8,1025.7,858.8z"/>
		<path fill="#320000" d="M838.7,630.1c1.8,1.4,4.5,1.3,6.3,0c1-0.8,1.8-1.9,1.9-3.2c0-0.3-0.3-3.7-1.1-3.5c-0.3,0.1-3.4-3.1-4-3.7
			c-0.7-0.7-1.4-1.4-2.1-2.2c-1.7-1.9-3.1-3.9-4.2-6.2c-2.4-4.9-11.7-1-9.3,4.1C829.2,621.4,833.5,626,838.7,630.1z"/>
		<path fill="#320000" d="M850.3,641.7c6.5,0,7.3-9.6,0.7-9.6C844.4,632.1,843.7,641.7,850.3,641.7z"/>
		<path fill="#320000" d="M1002.7,599.3c45.1-5.4,87.5-1.6,131.9,7.9c6.4,1.4,8.2-8,1.8-9.4c-45.3-9.6-89.1-13.5-135.4-8
			C994.4,590.6,996.3,600,1002.7,599.3z"/>
		<path fill="#320000" d="M1153.8,609.9c6.6,0,7-9.6,0.4-9.6C1147.7,600.3,1147.2,609.9,1153.8,609.9z"/>
	</g>
	<g>
		<path fill="#F04E3C" d="M1106.8,350c-7.8,1.9-14.9,0.2-23.1-1.8c-13.9-3.3-31.3-7.4-64.1,1.7c-40.2,11.2-68.1,38.2-78.3,49.4
			c34.2,15.1,72.9,22.8,116,22.8c4.3,0,8.7-0.1,13.2-0.2c6.9,0.1,10.8,6.1,15.4,13c8.2,12.5,20.6,31.4,56.7,32.5
			c26.4,0.9,49.8-10,64-29.4c12.7-17.3,16.2-39.3,9.7-60.4C1190.9,333.9,1126.1,345.4,1106.8,350z M1035,379
			c-7.8,5.3-15.8,10.5-23.7,15.7c-5.2,3.5-11.8-3.9-6.2-7.6c7.9-5.2,15.8-10.3,23.6-15.7C1033.7,367.9,1040.4,375.3,1035,379z
			 M1079.5,396.1c-5.2,3.2-11.7-4.3-6.1-7.7c14.4-8.8,28.7-17.7,43.8-25.3c5.5-2.7,10.8,5.5,5,8.4
			C1107.4,378.8,1093.5,387.6,1079.5,396.1z M1168,453.2c-21.4,5.4-52,9.3-64.6-13.7c-3.1-5.7,6.1-9.8,9-4.4
			c10.1,18.2,36.6,13.3,52.6,9C1171.2,442.4,1174.4,451.6,1168,453.2z M1160.6,394.9c-5.4,3.1-11.4-4.6-5.7-7.9
			c6.7-3.9,13.6-7.6,20.6-11c5.7-2.7,9.6,5.9,3.8,8.9C1173,388.1,1166.7,391.4,1160.6,394.9z M1184.8,446.4c-6.5,0-6.5-9.6,0-9.6
			C1191.4,436.9,1191.4,446.4,1184.8,446.4z"/>
		<path fill="#872032" d="M1016.7,339.9c35.4-9.9,55-5.2,69.4-1.8c7.5,1.8,12.9,3.1,18.3,1.8c20.3-4.8,86.6-16.5,117.3,27.1
			c1.4-1.3,3.1-2.7,5.2-4.4c24.6-20.5,88.6-73.9,103.9-191.7c-7.3,5.4-15.8,10.7-25.7,15.8c0,22.5-11,56.7-20.5,69.7
			c-11.5,15.7-108.5,52.9-225.3,55.5c-3.4,0.1-6.9,0.1-10.3,0.1c-111.9,0-205.2-40.2-215.7-50.6c-8.9-8.9-20.2-60.7-23.4-76
			c-9.5-4.9-17.9-10-24.9-15c1.5,23.8,15.2,94.3,62.2,154.8c23.5,30.3,51.6,53.5,84,69.6C940.2,384.4,970.5,352.8,1016.7,339.9z"/>
		<path fill="#FFFDE3" d="M1059.1,301.2c115.8-2.6,208.8-39.8,217.1-51.2c7.6-10.4,16.7-38.3,18.2-58.2
			c-29.7,13.8-69,26.4-117.8,37.6c-32.9,7.5-69.3,11.4-108.1,11.4c-94.5,0-188.1-22.8-246.6-49.7c6.4,29.1,14.6,58.5,18.9,62.7
			C847.9,260.8,942.3,303.8,1059.1,301.2z M1032,286.5c6.5,0,6.2,9.5-0.3,9.5C1025.1,296,1025.5,286.5,1032,286.5z M904,264
			c33.2,9.8,65.5,18.5,100.4,19.9c6.3,0.3,7.4,9.7,0.8,9.5c-36.1-1.2-69.8-10.1-104.3-20.3C894.5,271.2,897.8,262.2,904,264z"/>
		<path fill="#320000" d="M1336.7,154.5c-2.5,0-4.1,1.4-6.8,3.6c-27.4,23.2-79.8,43.7-155.5,61.1c-32.1,7.4-67.7,11.1-105.8,11.1
			c-122.3,0-242.7-38.3-284-73.8c-1-0.8-2.5-1.4-3.7-1.4c-6.3,0-6.3,7.6-6.3,10.8c0,22.7,12.7,88.9,51.8,148
			c21.1,32,53.9,67.5,103,91.3c-2.2-1.8-2.6-5-0.8-7.2c0.2-0.3,1.2-1.5,2.7-3.3c-32.4-16.1-60.5-39.3-84-69.6
			c-47-60.6-60.7-131.1-62.2-154.8c6.9,5,15.3,10,24.9,15c-0.2-0.9-0.4-1.7-0.5-2.3c-0.6-2.8,1.2-5.6,4.1-6.2
			c2.8-0.6,5.6,1.3,6.2,4.1c0.7,3.4,1.4,6.8,2.2,10.3c58.5,27,152.1,49.7,246.6,49.7c38.8,0,75.2-3.8,108.1-11.4
			c48.8-11.2,88.1-23.8,117.8-37.6c0.2-2.9,0.3-5.6,0.2-8c-0.1-2.9,2.1-5.4,5-5.5c2.9-0.1,5.4,2.1,5.5,5c0.1,1.1,0.1,2.2,0.1,3.3
			c9.8-5.1,18.4-10.4,25.7-15.8c-15.3,117.9-79.4,171.2-103.9,191.7c-2.1,1.7-3.8,3.2-5.2,4.4c1.4,1.9,2.7,3.9,3.9,6.1
			c1.4,2.5,0.5,5.7-2,7.1c-2.5,1.4-5.7,0.5-7.1-2c-0.1-0.2-0.2-0.3-0.3-0.5c6.5,21.1,3,43-9.7,60.4c-14.2,19.4-37.6,30.3-64,29.4
			c-36.1-1.1-48.5-20-56.7-32.5c-4.5-6.9-8.4-12.8-15.4-13c-4.5,0.2-8.9,0.2-13.2,0.2c-43.1,0-81.8-7.7-116-22.8c-2.8,3-4.3,5-4.4,5
			c-1,1.3-2.6,2-4.1,2c-0.4,0-0.8-0.1-1.1-0.2c33.8,16,75.1,26.4,125.6,26.4c4.5,0,9-0.1,13.3-0.2c1.3,0.3,4.5,5.1,6.5,8.2
			c8.8,13.4,23.6,35.9,65.1,37.2c1,0,2.1,0,3.1,0c28.6,0,53.9-12.3,69.6-33.7c14.3-19.5,18.6-44,11.9-67.7c1.5-1.4,4.2-3.7,6.9-5.9
			c26.2-21.8,95.8-79.9,108.9-209.6c0.1-0.7,0-1.3-0.2-2C1341.4,155.7,1338.7,154.5,1336.7,154.5z"/>
		<path fill="#320000" d="M1049.1,311.8c3.4,0,6.8,0,10.3-0.1c116.8-2.6,213.8-39.8,225.3-55.5c9.5-12.9,20.4-47.1,20.5-69.7
			c-3.4,1.8-7,3.5-10.7,5.2c-1.5,19.9-10.6,47.8-18.2,58.2c-8.3,11.4-101.3,48.6-217.1,51.2c-116.8,2.6-211.3-40.4-218.3-47.4
			c-4.3-4.3-12.5-33.6-18.9-62.7c-4.2-1.9-8.2-3.9-12-5.8c3.2,15.3,14.6,67.1,23.4,76C843.9,271.6,937.2,311.8,1049.1,311.8z"/>
		<path fill="#320000" d="M819.8,180.8c-0.6-2.8-3.4-4.7-6.2-4.1c-2.8,0.6-4.7,3.4-4.1,6.2c0.1,0.6,0.3,1.4,0.5,2.3
			c3.8,2,7.8,3.9,12,5.8C821.2,187.6,820.5,184.2,819.8,180.8z"/>
		<path fill="#320000" d="M1305.1,183.3c-0.1-2.9-2.6-5-5.5-5c-2.9,0.1-5.1,2.6-5,5.5c0.1,2.5,0.1,5.2-0.2,8
			c3.7-1.7,7.3-3.5,10.7-5.2C1305.2,185.4,1305.2,184.3,1305.1,183.3z"/>
		<path fill="#320000" d="M1019.6,350c32.8-9.1,50.2-5,64.1-1.7c8.2,1.9,15.3,3.6,23.1,1.8c19.3-4.6,84.1-16.1,109.3,27.6
			c-0.1-0.2-0.1-0.3-0.1-0.5c-0.2-0.7-0.3-1.4-0.2-2.2c0.3-2.6,2-4.6,5.9-8.1c-30.7-43.6-97-31.9-117.3-27.1
			c-5.4,1.3-10.8,0-18.3-1.8c-14.3-3.4-33.9-8.1-69.4,1.8c-46.3,12.9-76.5,44.5-85.4,54.8c3.3,1.6,6.6,3.2,9.9,4.7
			C951.5,388.2,979.3,361.2,1019.6,350z"/>
		<path fill="#320000" d="M929.5,405.3c0.6,0.5,1.3,0.8,2.1,0.9c-0.7-0.3-1.5-0.7-2.2-1C929.5,405.2,929.5,405.3,929.5,405.3z"/>
		<path fill="#320000" d="M936.9,404.4c0.1-0.1,1.6-2,4.4-5c-3.4-1.5-6.7-3.1-9.9-4.7c-1.6,1.8-2.5,3-2.7,3.3
			c-1.7,2.2-1.3,5.4,0.8,7.2c0.7,0.4,1.5,0.7,2.2,1c0.4,0.1,0.8,0.2,1.1,0.2C934.3,406.4,935.9,405.7,936.9,404.4z"/>
		<path fill="#320000" d="M1215.8,375c-0.1,0.7,0,1.5,0.2,2.2c0.1,0.2,0.1,0.3,0.1,0.5c0.1,0.2,0.2,0.3,0.3,0.5
			c1.4,2.5,4.6,3.4,7.1,2c2.5-1.4,3.4-4.6,2-7.1c-1.2-2.1-2.5-4.1-3.9-6.1C1217.8,370.3,1216.1,372.4,1215.8,375z"/>
		<path fill="#320000" d="M1165,444.1c-16.1,4.2-42.6,9.2-52.6-9c-3-5.4-12.1-1.2-9,4.4c12.6,23,43.2,19.1,64.6,13.7
			C1174.4,451.6,1171.2,442.4,1165,444.1z"/>
		<path fill="#320000" d="M1184.9,436.9c-6.5,0-6.6,9.6,0,9.6C1191.4,446.4,1191.4,436.9,1184.9,436.9z"/>
		<path fill="#320000" d="M900.9,273.1c34.5,10.2,68.1,19.1,104.3,20.3c6.6,0.2,5.5-9.2-0.8-9.5c-34.8-1.4-67.2-10.1-100.4-19.9
			C897.8,262.2,894.5,271.2,900.9,273.1z"/>
		<path fill="#320000" d="M1031.7,296c6.5,0,6.8-9.5,0.3-9.5C1025.5,286.5,1025.1,296,1031.7,296z"/>
		<path fill="#320000" d="M1028.7,371.4c-7.7,5.4-15.7,10.5-23.6,15.7c-5.5,3.7,1,11.1,6.2,7.6c7.9-5.3,15.8-10.4,23.7-15.7
			C1040.4,375.3,1033.7,367.9,1028.7,371.4z"/>
		<path fill="#320000" d="M1117.2,363.1c-15.1,7.5-29.4,16.5-43.8,25.3c-5.6,3.4,0.9,10.9,6.1,7.7c14.1-8.5,27.9-17.3,42.7-24.6
			C1128,368.7,1122.7,360.4,1117.2,363.1z"/>
		<path fill="#320000" d="M1175.5,376c-7,3.4-13.9,7.1-20.6,11c-5.8,3.3,0.2,11.1,5.7,7.9c6.2-3.5,12.4-6.8,18.7-10
			C1185.1,382,1181.2,373.3,1175.5,376z"/>
	</g>
</g>
</svg>
